if (_typeface_js && _typeface_js.loadFace) _typeface_js.loadFace({"glyphs":{"S":{"x_min":63.046875,"x_max":862.28125,"ha":926,"o":"m 862 263 q 758 58 862 131 q 467 -14 655 -14 q 63 228 118 -14 l 188 253 q 280 127 210 167 q 472 87 351 87 q 665 130 597 87 q 734 256 734 173 q 712 332 734 303 q 652 380 691 361 q 560 412 614 399 q 441 440 507 425 q 270 490 328 465 q 177 546 211 516 q 125 619 143 577 q 107 714 107 660 q 201 903 107 836 q 470 970 295 970 q 719 920 633 970 q 839 750 805 870 l 712 727 q 632 838 691 803 q 469 872 573 872 q 294 834 354 872 q 233 720 233 796 q 257 648 233 676 q 324 599 280 619 q 500 549 368 579 q 588 529 544 539 q 671 504 631 518 q 746 469 711 489 q 807 421 781 450 q 847 354 833 393 q 862 263 862 315 "},"¦":{"x_min":124.171875,"x_max":236.765625,"ha":361,"o":"m 124 479 l 124 1006 l 236 1006 l 236 479 l 124 479 m 124 -294 l 124 234 l 236 234 l 236 -294 l 124 -294 "},"/":{"x_min":0,"x_max":386,"ha":386,"o":"m 0 -14 l 278 1006 l 386 1006 l 109 -14 l 0 -14 "},"y":{"x_min":3.390625,"x_max":692.28125,"ha":695,"o":"m 129 -288 q 45 -280 79 -288 l 45 -188 q 102 -193 71 -193 q 283 -25 216 -193 l 294 3 l 3 734 l 133 734 l 288 328 q 296 305 291 318 q 327 217 301 292 q 354 132 352 141 l 402 266 l 563 734 l 692 734 l 409 0 q 325 -174 364 -117 q 237 -259 285 -231 q 129 -288 190 -288 "},"Á":{"x_min":2.71875,"x_max":923.28125,"ha":926,"o":"m 791 0 l 681 279 l 246 279 l 137 0 l 2 0 l 392 956 l 539 956 l 923 0 l 791 0 m 464 858 l 458 839 q 408 694 441 783 l 286 381 l 643 381 l 520 696 q 482 802 501 743 l 464 858 m 371 1038 l 371 1051 l 518 1205 l 658 1205 l 658 1185 l 448 1038 l 371 1038 "},"g":{"x_min":58.359375,"x_max":683.40625,"ha":773,"o":"m 371 -288 q 180 -240 251 -288 q 88 -106 109 -193 l 211 -89 q 265 -167 223 -140 q 375 -195 307 -195 q 557 18 557 -195 l 557 136 l 556 136 q 461 30 521 66 q 320 -5 401 -5 q 121 84 185 -5 q 58 365 58 173 q 126 652 58 560 q 333 745 194 745 q 469 709 412 745 q 557 608 526 673 l 559 608 q 562 678 559 628 q 567 734 564 729 l 683 734 q 679 582 679 697 l 679 21 q 371 -288 679 -288 m 557 366 q 533 521 557 456 q 464 619 509 585 q 363 654 420 654 q 227 586 270 654 q 184 366 184 518 q 224 150 184 216 q 361 85 264 85 q 464 119 419 85 q 533 216 509 152 q 557 366 557 279 "},"²":{"x_min":27.84375,"x_max":436.515625,"ha":463,"o":"m 29 382 l 27 451 q 92 543 48 498 q 209 637 136 587 q 304 721 275 683 q 334 799 334 759 q 310 866 334 841 q 236 892 286 892 q 160 867 190 892 q 124 796 130 842 l 34 801 q 98 919 43 874 q 240 964 152 964 q 377 922 326 964 q 427 805 427 880 q 300 612 427 706 q 183 520 217 551 q 135 458 149 489 l 436 458 l 436 382 l 29 382 "},"–":{"x_min":0,"x_max":772.328125,"ha":773,"o":"m 0 306 l 0 399 l 772 399 l 772 306 l 0 306 "},"ë":{"x_min":59.046875,"x_max":711.234375,"ha":773,"o":"m 187 340 q 239 145 187 214 q 392 77 291 77 q 519 109 471 77 q 584 190 567 141 l 691 159 q 392 -14 625 -14 q 144 82 229 -14 q 59 371 59 179 q 144 650 59 553 q 387 747 229 747 q 711 356 711 747 l 711 340 l 187 340 m 585 434 q 526 603 574 550 q 385 656 477 656 q 244 597 296 656 q 188 434 192 537 l 585 434 m 467 827 l 467 951 l 577 951 l 577 827 l 467 827 m 199 827 l 199 951 l 311 951 l 311 827 l 199 827 "},"Î":{"x_min":-31,"x_max":417.984375,"ha":386,"o":"m 128 0 l 128 956 l 257 956 l 257 0 l 128 0 m 417 1051 l 417 1038 l 346 1038 l 198 1132 l 196 1132 l 39 1038 l -31 1038 l -31 1051 l 127 1214 l 266 1214 l 417 1051 "},"e":{"x_min":59.046875,"x_max":711.234375,"ha":773,"o":"m 187 340 q 239 145 187 214 q 392 77 291 77 q 519 109 471 77 q 584 190 567 141 l 691 159 q 392 -14 625 -14 q 144 82 229 -14 q 59 371 59 179 q 144 650 59 553 q 387 747 229 747 q 711 356 711 747 l 711 340 l 187 340 m 585 434 q 526 603 574 550 q 385 656 477 656 q 244 597 296 656 q 188 434 192 537 l 585 434 "},"Ã":{"x_min":2.71875,"x_max":923.28125,"ha":926,"o":"m 791 0 l 681 279 l 246 279 l 137 0 l 2 0 l 392 956 l 539 956 l 923 0 l 791 0 m 464 858 l 458 839 q 408 694 441 783 l 286 381 l 643 381 l 520 696 q 482 802 501 743 l 464 858 m 570 1038 q 513 1050 541 1038 q 458 1078 484 1063 q 407 1106 431 1093 q 362 1118 383 1118 q 307 1097 325 1118 q 282 1038 288 1076 l 221 1038 q 244 1142 228 1107 q 288 1199 261 1178 q 358 1220 315 1220 q 417 1207 388 1220 q 471 1179 445 1194 q 521 1151 498 1164 q 565 1139 545 1139 q 644 1220 633 1139 l 707 1220 q 661 1078 695 1119 q 570 1038 627 1038 "},"J":{"x_min":21.71875,"x_max":591.828125,"ha":695,"o":"m 310 -14 q 21 236 67 -14 l 148 258 q 203 135 160 179 q 310 91 246 91 q 422 139 381 91 q 462 281 462 188 l 462 850 l 278 850 l 278 956 l 591 956 l 591 284 q 516 65 591 145 q 310 -14 441 -14 "},"»":{"x_min":56.328125,"x_max":716.671875,"ha":773,"o":"m 487 96 l 373 96 l 373 115 l 602 364 l 374 616 l 374 638 l 487 638 l 716 386 l 716 343 l 487 96 m 171 96 l 56 96 l 56 115 l 285 364 l 57 616 l 57 638 l 171 638 l 399 386 l 399 343 l 171 96 "},"©":{"x_min":21.015625,"x_max":1001.3125,"ha":1023,"o":"m 1001 479 q 935 234 1001 348 q 756 54 870 119 q 511 -11 642 -11 q 262 57 377 -11 q 84 238 147 125 q 21 479 21 351 q 86 724 21 610 q 266 904 152 838 q 511 970 380 970 q 756 903 642 970 q 936 724 871 837 q 1001 479 1001 611 m 938 479 q 881 692 938 594 q 725 847 825 790 q 511 905 626 905 q 298 848 397 905 q 142 691 199 790 q 85 479 85 592 q 142 265 85 364 q 298 109 200 166 q 511 52 396 52 q 725 109 625 52 q 881 265 825 166 q 938 479 938 364 m 337 481 q 385 317 337 375 q 518 259 433 259 q 676 365 625 259 l 754 341 q 655 224 712 259 q 518 189 597 189 q 320 265 391 189 q 250 481 250 342 q 317 693 250 618 q 513 769 385 769 q 744 627 679 769 l 667 604 q 606 674 645 651 q 515 697 566 697 q 383 643 429 697 q 337 481 337 588 "},"ò":{"x_min":58.359375,"x_max":714.640625,"ha":773,"o":"m 714 367 q 629 80 714 174 q 383 -14 544 -14 q 140 84 222 -14 q 58 367 58 182 q 387 747 58 747 q 635 654 555 747 q 714 367 714 561 m 586 367 q 541 587 586 519 q 389 656 496 656 q 234 586 282 656 q 186 367 186 516 q 233 149 186 222 q 382 76 280 76 q 539 146 492 76 q 586 367 586 217 m 448 815 l 223 1003 l 223 1023 l 364 1023 l 511 828 l 511 815 l 448 815 "},"^":{"x_min":6.78125,"x_max":645.21875,"ha":652,"o":"m 533 457 l 324 886 l 116 457 l 6 457 l 256 956 l 394 956 l 645 457 l 533 457 "},"«":{"x_min":56.328125,"x_max":716.671875,"ha":773,"o":"m 601 96 l 371 343 l 371 386 l 601 638 l 715 638 l 715 616 l 486 364 l 716 115 l 716 96 l 601 96 m 284 96 l 56 343 l 56 386 l 284 638 l 397 638 l 397 616 l 170 364 l 399 115 l 399 96 l 284 96 "},"D":{"x_min":113.9375,"x_max":936.546875,"ha":1003,"o":"m 936 487 q 878 228 936 339 q 715 59 821 118 q 471 0 609 0 l 113 0 l 113 956 l 429 956 q 804 834 672 956 q 936 487 936 712 m 806 487 q 709 758 806 665 q 427 852 611 852 l 243 852 l 243 103 l 456 103 q 641 149 561 103 q 763 282 720 196 q 806 487 806 369 "},"∙":{"x_min":126.859375,"x_max":259.109375,"ha":386,"o":"m 126 302 l 126 452 l 259 452 l 259 302 l 126 302 "},"ÿ":{"x_min":3.390625,"x_max":692.28125,"ha":695,"o":"m 129 -288 q 45 -280 79 -288 l 45 -188 q 102 -193 71 -193 q 283 -25 216 -193 l 294 3 l 3 734 l 133 734 l 288 328 q 296 305 291 318 q 327 217 301 292 q 354 132 352 141 l 402 266 l 563 734 l 692 734 l 409 0 q 325 -174 364 -117 q 237 -259 285 -231 q 129 -288 190 -288 m 425 827 l 425 951 l 535 951 l 535 827 l 425 827 m 157 827 l 157 951 l 269 951 l 269 827 l 157 827 "},"í":{"x_min":91.875,"x_max":379.734375,"ha":386,"o":"m 131 0 l 131 734 l 253 734 l 253 0 l 131 0 m 91 815 l 91 828 l 239 1023 l 379 1023 l 379 1003 l 155 815 l 91 815 "},"ˆ":{"x_min":0,"x_max":449.421875,"ha":463,"o":"m 449 828 l 449 815 l 378 815 l 229 929 l 228 929 l 70 815 l 0 815 l 0 828 l 158 1012 l 297 1012 l 449 828 "},"w":{"x_min":-2.03125,"x_max":1006.390625,"ha":1003,"o":"m 796 0 l 654 0 l 526 518 l 501 633 q 482 545 495 603 q 344 0 469 488 l 203 0 l -2 734 l 118 734 l 242 235 q 271 101 247 219 l 283 151 l 436 734 l 567 734 l 695 229 l 726 101 l 748 195 l 887 734 l 1006 734 l 796 0 "},"$":{"x_min":14.9375,"x_max":750.609375,"ha":773,"o":"m 351 14 q 14 257 62 26 l 130 282 q 201 161 147 201 q 351 114 255 120 l 351 450 q 185 503 231 480 q 111 558 139 527 q 70 624 83 589 q 58 709 58 659 q 134 873 58 814 q 351 939 211 932 l 351 1028 l 435 1028 l 435 939 q 631 881 562 932 q 729 721 701 830 l 611 699 q 556 798 597 763 q 435 842 515 834 l 435 540 q 608 488 557 512 q 689 434 659 464 q 735 364 719 405 q 750 268 750 323 q 668 89 750 156 q 435 14 586 21 l 435 -96 l 351 -96 l 351 14 m 633 267 q 616 339 633 311 q 565 387 598 368 q 435 430 532 405 l 435 113 q 582 159 531 119 q 633 267 633 198 m 175 710 q 191 642 175 670 q 242 596 208 615 q 351 558 276 577 l 351 843 q 175 710 175 833 "},"\\":{"x_min":0,"x_max":386,"ha":386,"o":"m 276 -14 l 0 1006 l 107 1006 l 386 -14 l 276 -14 "},"Ì":{"x_min":7,"x_max":294.5625,"ha":386,"o":"m 128 0 l 128 956 l 257 956 l 257 0 l 128 0 m 217 1038 l 7 1185 l 7 1205 l 147 1205 l 294 1051 l 294 1038 l 217 1038 "},"µ":{"x_min":94.921875,"x_max":768.15625,"ha":800,"o":"m 94 -288 l 94 734 l 217 734 l 217 268 q 253 127 217 174 q 370 80 290 80 q 507 139 457 80 q 556 308 556 198 l 556 734 l 678 734 l 678 180 q 690 105 678 128 q 731 81 703 81 q 768 87 748 81 l 768 0 q 691 -14 724 -14 q 597 17 629 -14 q 561 117 565 49 l 559 117 q 357 -14 488 -14 q 274 0 311 -14 q 217 39 238 13 l 217 -288 l 94 -288 "},"Ç":{"x_min":70.53125,"x_max":950.109375,"ha":1003,"o":"m 537 864 q 290 762 378 864 q 202 482 202 659 q 294 199 202 306 q 542 92 385 92 q 844 291 743 92 l 950 238 q 784 50 891 114 q 536 -14 677 -14 q 286 46 391 -14 q 125 217 181 106 q 70 482 70 329 q 193 840 70 710 q 535 970 317 970 q 790 910 688 970 q 941 733 893 850 l 818 693 q 711 820 785 776 q 537 864 638 864 m 673 -171 q 487 -294 673 -294 q 426 -291 449 -294 l 426 -224 q 485 -228 460 -228 q 585 -174 585 -228 q 494 -122 585 -122 q 455 -123 465 -122 l 500 0 l 572 0 l 546 -68 q 641 -97 610 -70 q 673 -171 673 -124 "},"’":{"x_min":86.265625,"x_max":222.578125,"ha":309,"o":"m 222 857 q 209 737 222 786 q 169 646 196 689 l 86 646 q 150 822 150 738 l 90 822 l 90 956 l 222 956 l 222 857 "},"-":{"x_min":61.78125,"x_max":401.21875,"ha":463,"o":"m 61 314 l 61 423 l 401 423 l 401 314 l 61 314 "},"Q":{"x_min":65.765625,"x_max":1013.5625,"ha":1080,"o":"m 1013 482 q 911 149 1013 280 q 629 -4 810 19 q 702 -127 656 -89 q 816 -165 747 -165 q 894 -156 853 -165 l 894 -247 q 773 -262 831 -262 q 605 -204 671 -262 q 496 -11 538 -146 q 265 57 362 -4 q 116 228 168 118 q 65 482 65 337 q 191 840 65 711 q 540 970 316 970 q 793 911 686 970 q 956 743 900 853 q 1013 482 1013 632 m 881 482 q 792 762 881 660 q 540 864 703 864 q 286 763 376 864 q 197 482 197 663 q 287 196 197 302 q 538 91 378 91 q 792 193 704 91 q 881 482 881 295 "},"M":{"x_min":113.9375,"x_max":1043.0625,"ha":1157,"o":"m 926 0 l 926 637 q 932 841 926 743 q 872 651 899 719 l 625 0 l 535 0 l 284 651 l 246 766 l 224 841 l 226 766 l 229 637 l 229 0 l 113 0 l 113 956 l 284 956 l 538 293 q 564 207 552 253 q 581 141 577 161 q 603 223 586 168 q 627 293 621 278 l 876 956 l 1043 956 l 1043 0 l 926 0 "},"C":{"x_min":70.53125,"x_max":950.109375,"ha":1003,"o":"m 537 864 q 290 762 378 864 q 202 482 202 659 q 294 199 202 306 q 542 92 385 92 q 844 291 743 92 l 950 238 q 784 50 891 114 q 536 -14 677 -14 q 286 46 391 -14 q 125 217 181 106 q 70 482 70 329 q 193 840 70 710 q 535 970 317 970 q 790 910 688 970 q 941 733 893 850 l 818 693 q 711 820 785 776 q 537 864 638 864 "},"!":{"x_min":125.5,"x_max":259.796875,"ha":386,"o":"m 243 269 l 143 269 l 126 956 l 259 956 l 243 269 m 125 0 l 125 136 l 257 136 l 257 0 l 125 0 "},"ç":{"x_min":59.046875,"x_max":658.34375,"ha":695,"o":"m 186 369 q 232 152 186 223 q 371 82 278 82 q 480 117 437 82 q 534 226 524 152 l 658 217 q 568 49 644 112 q 375 -14 492 -14 q 140 83 221 -14 q 59 367 59 180 q 140 649 59 552 q 373 747 221 747 q 560 688 486 747 q 654 527 635 630 l 528 518 q 480 615 519 579 q 370 651 441 651 q 230 586 273 651 q 186 369 186 522 m 509 -171 q 323 -294 509 -294 q 262 -291 285 -294 l 262 -224 q 321 -228 296 -228 q 421 -174 421 -228 q 330 -122 421 -122 q 291 -123 301 -122 l 336 0 l 408 0 l 382 -68 q 477 -97 446 -70 q 509 -171 509 -124 "},"È":{"x_min":113.890625,"x_max":866.34375,"ha":926,"o":"m 113 0 l 113 956 l 838 956 l 838 850 l 243 850 l 243 543 l 797 543 l 797 438 l 243 438 l 243 105 l 866 105 l 866 0 l 113 0 m 498 1038 l 288 1185 l 288 1205 l 428 1205 l 575 1051 l 575 1038 l 498 1038 "},"{":{"x_min":23.0625,"x_max":439.578125,"ha":464,"o":"m 348 -288 q 215 -235 261 -288 q 168 -89 168 -183 l 168 155 q 133 273 168 234 q 23 315 97 312 l 23 402 q 132 443 97 404 q 168 561 168 482 l 168 807 q 214 954 168 902 q 348 1006 259 1006 l 439 1006 l 439 918 l 396 918 q 308 882 335 918 q 282 772 282 845 l 282 531 q 246 421 282 467 q 151 360 210 374 l 151 359 q 247 298 211 345 q 282 187 282 252 l 282 -54 q 308 -163 282 -126 q 396 -200 335 -200 l 439 -200 l 439 -288 l 348 -288 "},"X":{"x_min":31.1875,"x_max":896.84375,"ha":926,"o":"m 753 0 l 467 417 l 174 0 l 31 0 l 394 496 l 58 956 l 202 956 l 467 580 l 725 956 l 869 956 l 542 501 l 896 0 l 753 0 "},"ô":{"x_min":58.359375,"x_max":714.640625,"ha":773,"o":"m 714 367 q 629 80 714 174 q 383 -14 544 -14 q 140 84 222 -14 q 58 367 58 182 q 387 747 58 747 q 635 654 555 747 q 714 367 714 561 m 586 367 q 541 587 586 519 q 389 656 496 656 q 234 586 282 656 q 186 367 186 516 q 233 149 186 222 q 382 76 280 76 q 539 146 492 76 q 586 367 586 217 m 612 828 l 612 815 l 541 815 l 392 929 l 391 929 l 233 815 l 163 815 l 163 828 l 321 1012 l 460 1012 l 612 828 "},"¼":{"x_min":37.984375,"x_max":1094.65625,"ha":1158,"o":"m 334 0 l 233 0 l 831 955 l 929 955 l 334 0 m 37 381 l 37 454 l 181 454 l 181 874 l 44 781 l 44 862 l 186 955 l 269 955 l 269 454 l 415 454 l 415 381 l 37 381 m 1019 122 l 1019 1 l 930 1 l 930 122 l 655 122 l 655 197 l 916 575 l 1019 575 l 1019 198 l 1094 198 l 1094 122 l 1019 122 m 931 484 q 876 393 917 457 l 741 198 l 930 198 l 930 442 l 931 484 "},"#":{"x_min":6.109375,"x_max":766.21875,"ha":773,"o":"m 608 600 l 555 350 l 731 350 l 731 277 l 539 277 l 479 0 l 405 0 l 463 277 l 217 277 l 160 0 l 85 0 l 142 277 l 6 277 l 6 350 l 158 350 l 211 600 l 40 600 l 40 673 l 226 673 l 287 950 l 361 950 l 302 673 l 548 673 l 608 950 l 682 950 l 623 673 l 766 673 l 766 600 l 608 600 m 288 600 l 234 350 l 479 350 l 532 600 l 288 600 "},"Ê":{"x_min":113.890625,"x_max":866.34375,"ha":926,"o":"m 113 0 l 113 956 l 838 956 l 838 850 l 243 850 l 243 543 l 797 543 l 797 438 l 243 438 l 243 105 l 866 105 l 866 0 l 113 0 m 702 1051 l 702 1038 l 631 1038 l 483 1132 l 481 1132 l 324 1038 l 254 1038 l 254 1051 l 412 1214 l 551 1214 l 702 1051 "},")":{"x_min":8.140625,"x_max":376.78125,"ha":463,"o":"m 376 357 q 315 5 376 161 q 126 -288 253 -150 l 8 -288 q 194 12 135 -145 q 254 359 254 169 q 194 706 254 548 q 8 1006 135 864 l 126 1006 q 315 711 254 867 q 376 360 376 555 l 376 357 "},"Å":{"x_min":2.71875,"x_max":923.28125,"ha":926,"o":"m 791 0 l 681 279 l 246 279 l 137 0 l 2 0 l 392 956 l 539 956 l 923 0 l 791 0 m 464 858 l 458 839 q 408 694 441 783 l 286 381 l 643 381 l 520 696 q 482 802 501 743 l 464 858 m 629 1048 q 581 932 629 980 q 464 883 532 883 q 348 932 397 883 q 300 1048 300 980 q 348 1164 300 1116 q 464 1211 397 1211 q 580 1163 532 1211 q 629 1048 629 1116 m 555 1048 q 529 1112 555 1086 q 464 1139 502 1139 q 399 1112 426 1139 q 373 1048 373 1086 q 399 982 373 1010 q 464 955 424 955 q 530 982 504 955 q 555 1048 555 1010 "},"ø":{"x_min":29.796875,"x_max":816.171875,"ha":848,"o":"m 753 367 q 669 80 753 174 q 422 -14 584 -14 q 210 52 290 -14 l 143 -26 l 29 -26 l 154 118 q 98 367 98 212 q 427 747 98 747 q 641 685 563 747 l 702 756 l 816 756 l 698 620 q 753 367 753 529 m 625 367 q 610 517 625 454 l 282 135 q 421 76 328 76 q 578 146 531 76 q 625 367 625 217 m 226 367 q 242 221 226 279 l 569 601 q 429 656 523 656 q 274 586 322 656 q 226 367 226 516 "},"â":{"x_min":59.046875,"x_max":773,"ha":773,"o":"m 281 -14 q 114 44 170 -14 q 59 204 59 102 q 134 379 59 318 q 376 444 209 440 l 540 447 l 540 487 q 502 615 540 576 q 383 654 464 654 q 263 626 301 654 q 219 537 226 598 l 91 548 q 386 747 122 747 q 594 683 524 747 q 664 500 664 620 l 664 184 q 678 102 664 129 q 732 75 692 75 q 773 79 750 75 l 773 3 q 678 -7 726 -7 q 579 28 610 -7 q 545 139 549 64 l 540 139 q 432 20 494 55 q 281 -14 369 -14 m 308 77 q 428 108 375 77 q 510 191 480 138 q 540 301 540 244 l 540 361 l 407 358 q 276 341 321 357 q 208 291 232 324 q 184 202 184 257 q 216 110 184 142 q 308 77 249 77 m 597 828 l 597 815 l 526 815 l 377 929 l 376 929 l 218 815 l 148 815 l 148 828 l 306 1012 l 445 1012 l 597 828 "},"}":{"x_min":23.0625,"x_max":438.90625,"ha":464,"o":"m 63 -200 q 152 -163 125 -200 q 179 -54 179 -126 l 179 187 q 214 299 179 253 q 310 359 249 345 l 310 360 q 215 419 251 374 q 179 531 179 465 l 179 772 q 152 882 179 845 q 63 918 125 918 l 23 918 l 23 1006 l 112 1006 q 246 954 201 1006 q 291 807 291 902 l 291 561 q 327 444 291 483 q 438 402 363 404 l 438 315 q 327 273 362 313 q 291 155 291 234 l 291 -89 q 245 -235 291 -182 q 112 -288 198 -288 l 23 -288 l 23 -200 l 63 -200 "},"Ä":{"x_min":2.71875,"x_max":923.28125,"ha":926,"o":"m 791 0 l 681 279 l 246 279 l 137 0 l 2 0 l 392 956 l 539 956 l 923 0 l 791 0 m 464 858 l 458 839 q 408 694 441 783 l 286 381 l 643 381 l 520 696 q 482 802 501 743 l 464 858 m 544 1038 l 544 1162 l 654 1162 l 654 1038 l 544 1038 m 277 1038 l 277 1162 l 388 1162 l 388 1038 l 277 1038 "},"¸":{"x_min":80.78125,"x_max":327.90625,"ha":463,"o":"m 327 -171 q 141 -294 327 -294 q 80 -291 103 -294 l 80 -224 q 139 -228 114 -228 q 239 -174 239 -228 q 148 -122 239 -122 q 109 -123 119 -122 l 154 0 l 226 0 l 200 -68 q 295 -97 264 -70 q 327 -171 327 -124 "},"a":{"x_min":59.046875,"x_max":773,"ha":773,"o":"m 281 -14 q 114 44 170 -14 q 59 204 59 102 q 134 379 59 318 q 376 444 209 440 l 540 447 l 540 487 q 502 615 540 576 q 383 654 464 654 q 263 626 301 654 q 219 537 226 598 l 91 548 q 386 747 122 747 q 594 683 524 747 q 664 500 664 620 l 664 184 q 678 102 664 129 q 732 75 692 75 q 773 79 750 75 l 773 3 q 678 -7 726 -7 q 579 28 610 -7 q 545 139 549 64 l 540 139 q 432 20 494 55 q 281 -14 369 -14 m 308 77 q 428 108 375 77 q 510 191 480 138 q 540 301 540 244 l 540 361 l 407 358 q 276 341 321 357 q 208 291 232 324 q 184 202 184 257 q 216 110 184 142 q 308 77 249 77 "},"—":{"x_min":0,"x_max":1389,"ha":1389,"o":"m 0 306 l 0 399 l 1389 399 l 1389 306 l 0 306 "},"=":{"x_min":67.8125,"x_max":742.515625,"ha":811,"o":"m 67 580 l 67 681 l 742 681 l 742 580 l 67 580 m 67 233 l 67 334 l 742 334 l 742 233 l 67 233 "},"N":{"x_min":113.9375,"x_max":889.75,"ha":1003,"o":"m 733 0 l 222 814 l 225 748 l 229 635 l 229 0 l 113 0 l 113 956 l 264 956 l 781 136 q 773 329 773 269 l 773 956 l 889 956 l 889 0 l 733 0 "},"˚":{"x_min":34.625,"x_max":363.203125,"ha":463,"o":"m 363 956 q 315 840 363 888 q 198 792 266 792 q 82 840 131 792 q 34 956 34 888 q 82 1072 34 1024 q 198 1120 131 1120 q 314 1072 266 1120 q 363 956 363 1024 m 289 956 q 263 1020 289 994 q 198 1047 236 1047 q 133 1020 160 1047 q 107 956 107 994 q 133 891 107 918 q 198 863 158 863 q 264 890 238 863 q 289 956 289 918 "},"ú":{"x_min":94.265625,"x_max":684.6875,"ha":773,"o":"m 217 734 l 217 268 q 231 155 217 195 q 276 97 245 115 q 368 80 308 80 q 507 140 456 80 q 558 308 558 201 l 558 734 l 680 734 l 680 156 q 684 0 680 28 l 569 0 q 568 18 568 3 q 566 52 567 33 q 563 125 565 71 l 561 125 q 464 17 519 49 q 327 -14 409 -14 q 150 46 206 -14 q 94 244 94 106 l 94 734 l 217 734 m 281 815 l 281 828 l 429 1023 l 569 1023 l 569 1003 l 345 815 l 281 815 "},"2":{"x_min":69.90625,"x_max":703.09375,"ha":773,"o":"m 69 0 l 69 86 q 154 226 104 165 q 259 336 204 286 q 368 427 314 385 q 465 511 422 469 q 535 599 509 553 q 562 704 562 645 q 516 826 562 782 q 388 869 470 869 q 259 827 310 869 q 200 708 208 784 l 75 719 q 172 902 88 834 q 388 970 256 970 q 610 901 532 970 q 688 708 688 833 q 662 597 688 652 q 587 487 637 542 q 394 317 536 432 q 270 202 316 253 q 204 103 224 151 l 703 103 l 703 0 l 69 0 "},"ü":{"x_min":94.265625,"x_max":684.6875,"ha":773,"o":"m 217 734 l 217 268 q 231 155 217 195 q 276 97 245 115 q 368 80 308 80 q 507 140 456 80 q 558 308 558 201 l 558 734 l 680 734 l 680 156 q 684 0 680 28 l 569 0 q 568 18 568 3 q 566 52 567 33 q 563 125 565 71 l 561 125 q 464 17 519 49 q 327 -14 409 -14 q 150 46 206 -14 q 94 244 94 106 l 94 734 l 217 734 m 459 827 l 459 951 l 569 951 l 569 827 l 459 827 m 191 827 l 191 951 l 303 951 l 303 827 l 191 827 "},"¯":{"x_min":-11.53125,"x_max":778.53125,"ha":767,"o":"m 778 985 l -11 985 l -11 1048 l 778 1048 l 778 985 "},"Z":{"x_min":44.0625,"x_max":804.609375,"ha":848,"o":"m 804 0 l 44 0 l 44 96 l 625 850 l 93 850 l 93 956 l 772 956 l 772 861 l 191 105 l 804 105 l 804 0 "},"u":{"x_min":90.265625,"x_max":680.6875,"ha":773,"o":"m 213 734 l 213 268 q 227 155 213 195 q 272 97 241 115 q 364 80 304 80 q 503 140 452 80 q 554 308 554 201 l 554 734 l 676 734 l 676 156 q 680 0 676 28 l 565 0 q 564 18 564 3 q 562 52 563 33 q 559 125 561 71 l 557 125 q 460 17 515 49 q 323 -14 405 -14 q 146 46 202 -14 q 90 244 90 106 l 90 734 l 213 734 "},"˜":{"x_min":-15.59375,"x_max":471.140625,"ha":463,"o":"m 334 815 q 276 827 305 815 q 222 855 248 840 q 171 883 195 870 q 126 895 147 895 q 70 874 88 895 q 46 815 52 853 l -15 815 q 8 919 -8 884 q 51 976 24 955 q 122 997 79 997 q 180 984 152 997 q 235 956 209 971 q 285 928 262 941 q 329 916 308 916 q 408 997 397 916 l 471 997 q 425 855 459 896 q 334 815 391 815 "},"Ó":{"x_min":65.765625,"x_max":1013.5625,"ha":1080,"o":"m 1013 482 q 956 219 1013 332 q 791 46 898 106 q 538 -14 684 -14 q 285 45 391 -14 q 122 218 178 105 q 65 482 65 331 q 191 840 65 711 q 540 970 316 970 q 793 911 686 970 q 956 743 900 853 q 1013 482 1013 632 m 881 482 q 792 762 881 660 q 540 864 703 864 q 286 763 376 864 q 197 482 197 663 q 287 196 197 302 q 538 91 378 91 q 792 193 704 91 q 881 482 881 295 m 421 1038 l 421 1051 l 568 1205 l 708 1205 l 708 1185 l 498 1038 l 421 1038 "},"k":{"x_min":93.65625,"x_max":697.03125,"ha":695,"o":"m 553 0 l 305 335 l 215 261 l 215 0 l 93 0 l 93 1006 l 215 1006 l 215 377 l 538 734 l 681 734 l 383 418 l 697 0 l 553 0 "},"Ù":{"x_min":107.15625,"x_max":895.84375,"ha":1003,"o":"m 495 -14 q 290 28 378 -14 q 155 152 203 71 q 107 347 107 234 l 107 956 l 236 956 l 236 357 q 303 159 236 226 q 495 91 369 91 q 695 161 623 91 q 766 366 766 231 l 766 956 l 895 956 l 895 359 q 846 159 895 243 q 707 30 797 74 q 495 -14 617 -14 m 552 1038 l 342 1185 l 342 1205 l 482 1205 l 629 1051 l 629 1038 l 552 1038 "},"€":{"x_min":10.9375,"x_max":753.3125,"ha":773,"o":"m 468 85 q 577 118 536 85 q 627 214 618 152 l 753 205 q 658 42 732 99 q 466 -14 584 -14 q 233 74 318 -14 q 126 340 147 163 l 10 340 l 38 428 l 119 428 l 117 480 l 119 538 l 10 538 l 38 625 l 125 625 q 231 884 147 799 q 464 970 315 970 q 657 912 582 970 q 751 750 731 855 l 625 741 q 575 837 616 803 q 462 870 534 870 q 314 811 365 870 q 248 625 263 752 l 551 625 l 524 538 l 244 538 q 242 480 242 522 q 244 428 242 453 l 551 428 l 524 340 l 250 340 q 320 146 265 208 q 468 85 375 85 "},"¢":{"x_min":91.625,"x_max":690.875,"ha":773,"o":"m 404 187 q 513 223 469 187 q 567 331 557 258 l 690 323 q 613 164 677 225 q 449 93 549 102 l 449 -21 l 365 -21 l 365 93 q 160 201 230 105 q 91 473 91 298 q 160 742 91 644 q 365 851 230 839 l 365 956 l 449 956 l 449 851 q 607 784 546 840 q 686 633 668 728 l 561 624 q 513 721 551 685 q 403 757 474 757 q 262 692 306 757 q 219 475 219 628 q 265 258 219 329 q 404 187 311 187 "},"ß":{"x_min":96.25,"x_max":791.0625,"ha":848,"o":"m 791 199 q 727 41 791 97 q 548 -14 663 -14 q 356 19 432 -14 l 355 130 q 444 97 390 110 q 545 83 498 83 q 641 112 607 83 q 674 195 674 141 q 645 273 674 238 q 551 347 616 308 q 457 428 488 384 q 427 531 427 473 q 446 607 427 573 q 502 671 465 641 q 559 732 541 704 q 577 795 577 761 q 532 878 577 847 q 412 910 486 910 q 265 856 312 910 q 218 692 218 801 l 218 0 l 96 0 l 96 696 q 175 928 96 850 q 412 1006 255 1006 q 617 951 541 1006 q 694 804 694 896 q 617 637 694 707 q 552 572 563 588 q 540 536 540 555 q 559 490 540 510 q 606 450 578 470 q 666 409 633 431 q 791 199 791 325 "},"é":{"x_min":59.046875,"x_max":711.234375,"ha":773,"o":"m 187 340 q 239 145 187 214 q 392 77 291 77 q 519 109 471 77 q 584 190 567 141 l 691 159 q 392 -14 625 -14 q 144 82 229 -14 q 59 371 59 179 q 144 650 59 553 q 387 747 229 747 q 711 356 711 747 l 711 340 l 187 340 m 585 434 q 526 603 574 550 q 385 656 477 656 q 244 597 296 656 q 188 434 192 537 l 585 434 m 298 815 l 298 828 l 446 1023 l 586 1023 l 586 1003 l 362 815 l 298 815 "},"s":{"x_min":38.6875,"x_max":644.78125,"ha":695,"o":"m 644 202 q 566 42 644 98 q 346 -14 488 -14 q 135 31 209 -14 q 38 171 61 76 l 146 192 q 211 106 162 133 q 346 78 259 78 q 482 107 439 78 q 526 192 526 135 q 496 263 526 236 q 399 308 466 290 l 312 331 q 162 384 207 358 q 92 447 118 410 q 67 539 67 485 q 139 692 67 639 q 348 745 211 745 q 541 702 469 745 q 631 565 612 659 l 522 551 q 467 626 511 600 q 348 652 422 652 q 225 627 265 652 q 186 551 186 602 q 202 500 186 520 q 251 465 219 479 q 385 426 282 451 q 525 381 482 401 q 592 335 568 360 q 631 277 617 310 q 644 202 644 244 "},"B":{"x_min":113.890625,"x_max":852.78125,"ha":926,"o":"m 852 269 q 759 70 852 141 q 501 0 667 0 l 113 0 l 113 956 l 460 956 q 797 724 797 956 q 749 581 797 639 q 615 504 702 524 q 791 428 729 490 q 852 269 852 365 m 666 708 q 614 819 666 785 q 460 852 561 852 l 243 852 l 243 550 l 460 550 q 615 588 564 550 q 666 708 666 627 m 721 279 q 484 448 721 448 l 243 448 l 243 103 l 494 103 q 667 147 613 103 q 721 279 721 192 "},"?":{"x_min":57.015625,"x_max":721.421875,"ha":773,"o":"m 721 699 q 706 608 721 648 q 663 534 691 568 q 572 454 635 500 l 518 414 q 445 340 469 379 q 421 255 422 301 l 302 255 q 317 337 304 301 q 351 399 330 372 q 399 448 372 426 q 452 488 425 469 q 506 527 479 508 q 552 570 532 546 q 585 624 572 594 q 597 694 597 654 q 545 816 597 771 q 397 861 492 861 q 246 814 302 861 q 181 683 191 766 l 57 691 q 162 898 74 826 q 396 970 251 970 q 634 898 547 970 q 721 699 721 826 m 297 0 l 297 136 l 429 136 l 429 0 l 297 0 "},"H":{"x_min":113.9375,"x_max":889.75,"ha":1003,"o":"m 760 0 l 760 443 l 243 443 l 243 0 l 113 0 l 113 956 l 243 956 l 243 552 l 760 552 l 760 956 l 889 956 l 889 0 l 760 0 "},"î":{"x_min":-30,"x_max":419.421875,"ha":386,"o":"m 131 0 l 131 734 l 253 734 l 253 0 l 131 0 m 419 828 l 419 815 l 348 815 l 199 929 l 198 929 l 40 815 l -30 815 l -30 828 l 128 1012 l 267 1012 l 419 828 "},"c":{"x_min":59.046875,"x_max":658.34375,"ha":695,"o":"m 186 369 q 232 152 186 223 q 371 82 278 82 q 480 117 437 82 q 534 226 524 152 l 658 217 q 568 49 644 112 q 375 -14 492 -14 q 140 83 221 -14 q 59 367 59 180 q 140 649 59 552 q 373 747 221 747 q 560 688 486 747 q 654 527 635 630 l 528 518 q 480 615 519 579 q 370 651 441 651 q 230 586 273 651 q 186 369 186 522 "},"¶":{"x_min":54.25,"x_max":687.015625,"ha":746,"o":"m 599 887 l 599 -179 l 523 -179 l 523 887 l 376 887 l 376 -179 l 299 -179 l 299 471 q 120 533 185 471 q 54 711 54 596 q 121 891 54 826 q 305 956 187 956 l 687 956 l 687 887 l 599 887 "},"•":{"x_min":54.90625,"x_max":431.09375,"ha":486,"o":"m 431 462 q 375 328 431 385 q 240 272 320 272 q 109 328 164 272 q 54 462 54 384 q 109 594 54 540 q 240 648 164 648 q 375 593 319 648 q 431 462 431 538 "},"¥":{"x_min":-1.359375,"x_max":775.03125,"ha":773,"o":"m 488 481 l 706 481 l 706 396 l 446 396 l 446 292 l 706 292 l 706 205 l 446 205 l 446 0 l 325 0 l 325 205 l 67 205 l 67 292 l 325 292 l 327 396 l 67 396 l 67 481 l 284 481 l -1 956 l 133 956 l 385 516 l 640 956 l 775 956 l 488 481 "},"(":{"x_min":86.21875,"x_max":454.859375,"ha":463,"o":"m 86 360 q 147 712 86 556 q 336 1006 209 868 l 454 1006 q 268 706 327 864 q 208 359 208 547 q 267 13 208 171 q 454 -288 326 -144 l 336 -288 q 147 6 208 -149 q 86 357 86 163 l 86 360 "},"U":{"x_min":107.15625,"x_max":895.84375,"ha":1003,"o":"m 495 -14 q 290 28 378 -14 q 155 152 203 71 q 107 347 107 234 l 107 956 l 236 956 l 236 357 q 303 159 236 226 q 495 91 369 91 q 695 161 623 91 q 766 366 766 231 l 766 956 l 895 956 l 895 359 q 846 159 895 243 q 707 30 797 74 q 495 -14 617 -14 "},"Ñ":{"x_min":113.9375,"x_max":889.75,"ha":1003,"o":"m 733 0 l 222 814 l 225 748 l 229 635 l 229 0 l 113 0 l 113 956 l 264 956 l 781 136 q 773 329 773 269 l 773 956 l 889 956 l 889 0 l 733 0 m 616 1038 q 559 1050 587 1038 q 504 1078 530 1063 q 453 1106 477 1093 q 408 1118 429 1118 q 353 1097 371 1118 q 328 1038 334 1076 l 267 1038 q 290 1142 274 1107 q 334 1199 307 1178 q 404 1220 361 1220 q 463 1207 434 1220 q 517 1179 491 1194 q 567 1151 544 1164 q 611 1139 591 1139 q 690 1220 679 1139 l 753 1220 q 707 1078 741 1119 q 616 1038 673 1038 "},"F":{"x_min":113.875,"x_max":792.421875,"ha":848,"o":"m 243 850 l 243 495 l 776 495 l 776 387 l 243 387 l 243 0 l 113 0 l 113 956 l 792 956 l 792 850 l 243 850 "},"­":{"x_min":61.78125,"x_max":401.21875,"ha":463,"o":"m 61 314 l 61 423 l 401 423 l 401 314 l 61 314 "},":":{"x_min":126.859375,"x_max":259.109375,"ha":386,"o":"m 126 594 l 126 734 l 259 734 l 259 594 l 126 594 m 126 0 l 126 140 l 259 140 l 259 0 l 126 0 "},"Û":{"x_min":107.15625,"x_max":895.84375,"ha":1003,"o":"m 495 -14 q 290 28 378 -14 q 155 152 203 71 q 107 347 107 234 l 107 956 l 236 956 l 236 357 q 303 159 236 226 q 495 91 369 91 q 695 161 623 91 q 766 366 766 231 l 766 956 l 895 956 l 895 359 q 846 159 895 243 q 707 30 797 74 q 495 -14 617 -14 m 725 1051 l 725 1038 l 654 1038 l 506 1132 l 504 1132 l 347 1038 l 277 1038 l 277 1051 l 435 1214 l 574 1214 l 725 1051 "},"*":{"x_min":22.40625,"x_max":519.28125,"ha":541,"o":"m 309 755 l 488 825 l 519 736 l 327 686 l 453 516 l 372 468 l 270 643 l 164 469 l 84 518 l 212 686 l 22 736 l 52 827 l 234 754 l 226 956 l 318 956 l 309 755 "},"°":{"x_min":82.671875,"x_max":471.640625,"ha":555,"o":"m 471 776 q 414 639 471 695 q 277 583 357 583 q 139 640 197 583 q 82 776 82 697 q 139 912 82 855 q 277 970 195 970 q 415 913 358 970 q 471 776 471 857 m 397 776 q 362 863 397 828 q 277 898 327 898 q 191 862 226 898 q 156 776 156 826 q 192 690 156 726 q 277 654 227 654 q 362 689 327 654 q 397 776 397 725 "},"V":{"x_min":6.09375,"x_max":919.90625,"ha":926,"o":"m 530 0 l 395 0 l 6 956 l 142 956 l 406 282 l 463 113 l 520 282 l 783 956 l 919 956 l 530 0 "},"å":{"x_min":59.046875,"x_max":773,"ha":773,"o":"m 281 -14 q 114 44 170 -14 q 59 204 59 102 q 134 379 59 318 q 376 444 209 440 l 540 447 l 540 487 q 502 615 540 576 q 383 654 464 654 q 263 626 301 654 q 219 537 226 598 l 91 548 q 386 747 122 747 q 594 683 524 747 q 664 500 664 620 l 664 184 q 678 102 664 129 q 732 75 692 75 q 773 79 750 75 l 773 3 q 678 -7 726 -7 q 579 28 610 -7 q 545 139 549 64 l 540 139 q 432 20 494 55 q 281 -14 369 -14 m 308 77 q 428 108 375 77 q 510 191 480 138 q 540 301 540 244 l 540 361 l 407 358 q 276 341 321 357 q 208 291 232 324 q 184 202 184 257 q 216 110 184 142 q 308 77 249 77 m 542 956 q 494 840 542 888 q 377 792 445 792 q 261 840 310 792 q 213 956 213 888 q 261 1072 213 1024 q 377 1120 310 1120 q 493 1072 445 1120 q 542 956 542 1024 m 468 956 q 442 1020 468 994 q 377 1047 415 1047 q 312 1020 339 1047 q 286 956 286 994 q 312 891 286 918 q 377 863 337 863 q 443 890 417 863 q 468 956 468 918 "}," ":{"x_min":0,"x_max":0,"ha":386},"0":{"x_min":54.296875,"x_max":718.703125,"ha":773,"o":"m 718 478 q 634 112 718 238 q 384 -14 549 -14 q 137 111 219 -14 q 54 478 54 237 q 134 847 54 724 q 388 970 215 970 q 638 845 557 970 q 718 478 718 721 m 594 478 q 546 778 594 685 q 388 870 498 870 q 226 779 276 870 q 177 478 177 687 q 227 180 177 274 q 386 85 277 85 q 544 182 494 85 q 594 478 594 278 "},"”":{"x_min":50.90625,"x_max":412.078125,"ha":463,"o":"m 412 857 q 400 745 412 794 q 358 646 389 695 l 276 646 q 340 824 340 738 l 280 824 l 280 956 l 412 956 l 412 857 m 187 857 q 174 737 187 786 q 134 646 161 689 l 50 646 q 114 824 114 738 l 54 824 l 54 956 l 187 956 l 187 857 "},"¾":{"x_min":49.515625,"x_max":1094.65625,"ha":1158,"o":"m 347 0 l 247 0 l 845 955 l 943 955 l 347 0 m 1019 122 l 1019 1 l 930 1 l 930 122 l 655 122 l 655 197 l 916 575 l 1019 575 l 1019 198 l 1094 198 l 1094 122 l 1019 122 m 931 484 q 876 393 917 457 l 741 198 l 930 198 l 930 442 l 931 484 m 466 539 q 414 417 466 460 q 265 373 361 373 q 49 527 71 373 l 141 536 q 265 444 153 444 q 373 544 373 444 q 245 637 373 637 l 204 637 l 204 711 l 242 711 q 328 735 297 711 q 359 804 359 760 q 334 868 359 845 q 261 891 309 891 q 186 868 215 891 q 153 800 158 844 l 62 808 q 124 923 71 882 q 263 963 177 963 q 402 923 352 963 q 452 816 452 883 q 423 728 452 765 q 333 677 394 691 l 333 676 q 430 634 394 670 q 466 539 466 598 "},"@":{"x_min":109.1875,"x_max":1289.953125,"ha":1410,"o":"m 1289 511 q 1250 283 1289 385 q 1142 125 1211 181 q 986 70 1072 70 q 883 99 919 70 q 846 189 846 129 l 848 236 l 844 236 q 733 111 799 153 q 590 70 667 70 q 425 139 484 70 q 366 331 366 208 q 410 537 366 442 q 533 689 454 633 q 707 746 611 746 q 911 622 855 746 l 915 622 l 942 731 l 1047 731 l 969 388 q 944 216 944 276 q 998 152 944 152 q 1099 199 1053 152 q 1171 328 1144 246 q 1197 510 1197 410 q 1145 725 1197 631 q 994 870 1093 819 q 765 920 896 920 q 474 848 600 920 q 276 638 348 775 q 204 332 204 502 q 258 101 204 201 q 412 -51 311 1 q 647 -105 512 -105 q 846 -79 745 -105 q 1055 4 947 -54 l 1093 -71 q 879 -161 994 -130 q 647 -192 765 -192 q 361 -127 483 -192 q 173 57 238 -62 q 109 332 109 176 q 193 677 109 522 q 427 919 278 833 q 763 1006 577 1006 q 1045 944 927 1006 q 1227 771 1164 883 q 1289 511 1289 659 m 878 505 q 834 617 878 575 q 714 659 789 659 q 593 616 646 659 q 509 497 539 573 q 478 332 478 421 q 511 204 478 251 q 610 158 543 158 q 765 230 695 158 q 863 407 836 301 q 878 505 878 470 "},"ö":{"x_min":58.359375,"x_max":714.640625,"ha":773,"o":"m 714 367 q 629 80 714 174 q 383 -14 544 -14 q 140 84 222 -14 q 58 367 58 182 q 387 747 58 747 q 635 654 555 747 q 714 367 714 561 m 586 367 q 541 587 586 519 q 389 656 496 656 q 234 586 282 656 q 186 367 186 516 q 233 149 186 222 q 382 76 280 76 q 539 146 492 76 q 586 367 586 217 m 468 827 l 468 951 l 578 951 l 578 827 l 468 827 m 200 827 l 200 951 l 312 951 l 312 827 l 200 827 "},"i":{"x_min":93.046875,"x_max":215.125,"ha":309,"o":"m 93 889 l 93 1006 l 215 1006 l 215 889 l 93 889 m 93 0 l 93 734 l 215 734 l 215 0 l 93 0 "},"Õ":{"x_min":65.765625,"x_max":1013.5625,"ha":1080,"o":"m 1013 482 q 956 219 1013 332 q 791 46 898 106 q 538 -14 684 -14 q 285 45 391 -14 q 122 218 178 105 q 65 482 65 331 q 191 840 65 711 q 540 970 316 970 q 793 911 686 970 q 956 743 900 853 q 1013 482 1013 632 m 881 482 q 792 762 881 660 q 540 864 703 864 q 286 763 376 864 q 197 482 197 663 q 287 196 197 302 q 538 91 378 91 q 792 193 704 91 q 881 482 881 295 m 638 1038 q 581 1050 609 1038 q 526 1078 552 1063 q 475 1106 499 1093 q 430 1118 451 1118 q 375 1097 393 1118 q 350 1038 356 1076 l 289 1038 q 312 1142 296 1107 q 356 1199 329 1178 q 426 1220 383 1220 q 485 1207 456 1220 q 539 1179 513 1194 q 589 1151 566 1164 q 633 1139 613 1139 q 712 1220 701 1139 l 775 1220 q 729 1078 763 1119 q 638 1038 695 1038 "},"þ":{"x_min":93.65625,"x_max":714.640625,"ha":773,"o":"m 93 1006 l 215 1006 l 215 719 q 213 615 215 675 l 217 615 q 303 715 249 683 q 444 747 356 747 q 647 656 580 747 q 714 370 714 565 q 444 -14 714 -14 q 216 113 274 -14 l 213 113 q 215 -1 215 108 l 215 -288 l 93 -288 l 93 1006 m 586 367 q 545 586 586 521 q 413 652 503 652 q 299 622 340 652 q 237 526 258 591 q 215 358 215 461 q 261 144 215 213 q 411 76 308 76 q 544 143 502 76 q 586 367 586 209 "},"]":{"x_min":10.859375,"x_max":286.953125,"ha":386,"o":"m 10 -288 l 10 -200 l 168 -200 l 168 918 l 10 918 l 10 1006 l 286 1006 l 286 -288 l 10 -288 "},"m":{"x_min":92.21875,"x_max":1065.4375,"ha":1157,"o":"m 520 0 l 520 464 q 491 612 520 571 q 386 652 462 652 q 263 593 308 652 q 217 424 217 533 l 217 0 l 96 0 l 96 577 q 92 734 96 705 l 207 734 q 208 715 208 730 q 210 681 209 700 q 212 608 211 661 l 214 608 q 305 716 254 685 q 429 747 356 747 q 561 713 512 747 q 628 608 609 680 l 630 608 q 722 714 668 681 q 853 747 776 747 q 1014 686 964 747 q 1065 488 1065 626 l 1065 0 l 944 0 l 944 464 q 915 612 944 571 q 810 652 886 652 q 685 593 730 652 q 641 424 641 534 l 641 0 l 520 0 "},"8":{"x_min":60.40625,"x_max":712.59375,"ha":773,"o":"m 712 266 q 628 60 712 134 q 386 -14 544 -14 q 146 58 233 -14 q 60 265 60 131 q 114 422 60 358 q 251 500 167 486 l 251 502 q 127 582 173 521 q 82 725 82 643 q 164 902 82 834 q 384 970 246 970 q 607 903 525 970 q 688 723 688 837 q 643 580 688 641 q 519 504 597 519 l 519 501 q 661 423 610 486 q 712 266 712 360 m 562 717 q 384 879 562 879 q 252 838 297 879 q 207 717 207 797 q 254 592 207 635 q 385 549 300 549 q 516 588 471 549 q 562 717 562 628 m 585 278 q 532 412 585 367 q 384 457 479 457 q 238 408 291 457 q 186 275 186 360 q 388 77 186 77 q 536 125 488 77 q 585 278 585 173 "},"R":{"x_min":113.9375,"x_max":938.578125,"ha":1003,"o":"m 789 0 l 541 396 l 243 396 l 243 0 l 113 0 l 113 956 l 563 956 q 812 883 724 956 q 900 682 900 811 q 838 503 900 575 q 667 411 776 430 l 938 0 l 789 0 m 770 681 q 713 808 770 764 q 550 852 657 852 l 243 852 l 243 499 l 556 499 q 714 546 658 499 q 770 681 770 594 "},"á":{"x_min":59.046875,"x_max":773,"ha":773,"o":"m 281 -14 q 114 44 170 -14 q 59 204 59 102 q 134 379 59 318 q 376 444 209 440 l 540 447 l 540 487 q 502 615 540 576 q 383 654 464 654 q 263 626 301 654 q 219 537 226 598 l 91 548 q 386 747 122 747 q 594 683 524 747 q 664 500 664 620 l 664 184 q 678 102 664 129 q 732 75 692 75 q 773 79 750 75 l 773 3 q 678 -7 726 -7 q 579 28 610 -7 q 545 139 549 64 l 540 139 q 432 20 494 55 q 281 -14 369 -14 m 308 77 q 428 108 375 77 q 510 191 480 138 q 540 301 540 244 l 540 361 l 407 358 q 276 341 321 357 q 208 291 232 324 q 184 202 184 257 q 216 110 184 142 q 308 77 249 77 m 279 815 l 279 828 l 427 1023 l 567 1023 l 567 1003 l 343 815 l 279 815 "},"×":{"x_min":96.234375,"x_max":715.453125,"ha":811,"o":"m 96 223 l 336 463 l 97 702 l 168 772 l 405 532 l 642 770 l 714 699 l 476 463 l 715 224 l 646 153 l 406 392 l 165 152 l 96 223 "},"o":{"x_min":58.359375,"x_max":714.640625,"ha":773,"o":"m 714 367 q 629 80 714 174 q 383 -14 544 -14 q 140 84 222 -14 q 58 367 58 182 q 387 747 58 747 q 635 654 555 747 q 714 367 714 561 m 586 367 q 541 587 586 519 q 389 656 496 656 q 234 586 282 656 q 186 367 186 516 q 233 149 186 222 q 382 76 280 76 q 539 146 492 76 q 586 367 586 217 "},"5":{"x_min":55.65625,"x_max":714.640625,"ha":773,"o":"m 714 311 q 624 72 714 159 q 375 -14 534 -14 q 159 44 241 -14 q 55 213 77 102 l 179 227 q 378 85 217 85 q 532 145 476 85 q 587 308 587 204 q 531 454 587 398 q 380 510 475 510 q 288 494 331 510 q 202 441 245 479 l 83 441 l 115 956 l 658 956 l 658 852 l 226 852 l 208 548 q 405 610 287 610 q 630 527 546 610 q 714 311 714 444 "},"õ":{"x_min":58.359375,"x_max":714.640625,"ha":773,"o":"m 714 367 q 629 80 714 174 q 383 -14 544 -14 q 140 84 222 -14 q 58 367 58 182 q 387 747 58 747 q 635 654 555 747 q 714 367 714 561 m 586 367 q 541 587 586 519 q 389 656 496 656 q 234 586 282 656 q 186 367 186 516 q 233 149 186 222 q 382 76 280 76 q 539 146 492 76 q 586 367 586 217 m 502 815 q 444 827 473 815 q 390 855 416 840 q 339 883 363 870 q 294 895 315 895 q 238 874 256 895 q 214 815 220 853 l 152 815 q 176 919 159 884 q 219 976 192 955 q 290 997 247 997 q 348 984 320 997 q 403 956 377 971 q 453 928 430 941 q 497 916 476 916 q 576 997 565 916 l 639 997 q 593 855 627 896 q 502 815 559 815 "},"7":{"x_min":71.265625,"x_max":703.09375,"ha":773,"o":"m 703 856 q 496 506 556 633 q 405 255 435 379 q 375 0 375 132 l 247 0 q 325 385 247 183 q 585 852 403 588 l 71 852 l 71 956 l 703 956 l 703 856 "},"K":{"x_min":113.890625,"x_max":910.40625,"ha":926,"o":"m 749 0 l 368 461 l 243 366 l 243 0 l 113 0 l 113 956 l 243 956 l 243 476 l 703 956 l 856 956 l 449 540 l 910 0 l 749 0 "},",":{"x_min":124.828125,"x_max":261.140625,"ha":386,"o":"m 261 149 l 261 35 q 248 -84 261 -36 q 208 -177 235 -132 l 124 -177 q 188 0 188 -85 l 128 0 l 128 149 l 261 149 "},"d":{"x_min":58.359375,"x_max":683.40625,"ha":773,"o":"m 557 117 q 467 16 523 47 q 328 -14 411 -14 q 123 79 189 -14 q 58 363 58 173 q 328 747 58 747 q 467 716 412 747 q 557 619 523 685 l 558 619 l 557 701 l 557 1006 l 679 1006 l 679 151 q 683 0 679 36 l 566 0 q 562 50 564 10 q 559 117 559 89 l 557 117 m 186 367 q 227 146 186 213 q 359 80 268 80 q 510 152 463 80 q 557 375 557 224 q 510 588 557 521 q 361 656 463 656 q 227 588 268 656 q 186 367 186 520 "},"¨":{"x_min":30.546875,"x_max":408.6875,"ha":463,"o":"m 298 827 l 298 951 l 408 951 l 408 827 l 298 827 m 30 827 l 30 951 l 142 951 l 142 827 l 30 827 "},"Ô":{"x_min":65.765625,"x_max":1013.5625,"ha":1080,"o":"m 1013 482 q 956 219 1013 332 q 791 46 898 106 q 538 -14 684 -14 q 285 45 391 -14 q 122 218 178 105 q 65 482 65 331 q 191 840 65 711 q 540 970 316 970 q 793 911 686 970 q 956 743 900 853 q 1013 482 1013 632 m 881 482 q 792 762 881 660 q 540 864 703 864 q 286 763 376 864 q 197 482 197 663 q 287 196 197 302 q 538 91 378 91 q 792 193 704 91 q 881 482 881 295 m 766 1051 l 766 1038 l 695 1038 l 547 1132 l 545 1132 l 388 1038 l 318 1038 l 318 1051 l 476 1214 l 615 1214 l 766 1051 "},"E":{"x_min":113.890625,"x_max":866.34375,"ha":926,"o":"m 113 0 l 113 956 l 838 956 l 838 850 l 243 850 l 243 543 l 797 543 l 797 438 l 243 438 l 243 105 l 866 105 l 866 0 l 113 0 "},"Y":{"x_min":30.28125,"x_max":895.703125,"ha":926,"o":"m 526 396 l 526 0 l 397 0 l 397 396 l 30 956 l 172 956 l 463 500 l 753 956 l 895 956 l 526 396 "},"\"":{"x_min":59,"x_max":434.03125,"ha":493,"o":"m 419 656 l 322 656 l 309 956 l 434 956 l 419 656 m 168 656 l 73 656 l 59 956 l 183 956 l 168 656 "},"‹":{"x_min":59.734375,"x_max":402.578125,"ha":463,"o":"m 287 96 l 59 343 l 59 386 l 287 638 l 401 638 l 401 616 l 174 364 l 402 115 l 402 96 l 287 96 "},"ê":{"x_min":59.046875,"x_max":711.234375,"ha":773,"o":"m 187 340 q 239 145 187 214 q 392 77 291 77 q 519 109 471 77 q 584 190 567 141 l 691 159 q 392 -14 625 -14 q 144 82 229 -14 q 59 371 59 179 q 144 650 59 553 q 387 747 229 747 q 711 356 711 747 l 711 340 l 187 340 m 585 434 q 526 603 574 550 q 385 656 477 656 q 244 597 296 656 q 188 434 192 537 l 585 434 m 615 828 l 615 815 l 544 815 l 395 929 l 394 929 l 236 815 l 166 815 l 166 828 l 324 1012 l 463 1012 l 615 828 "},"Ï":{"x_min":5,"x_max":382.5625,"ha":386,"o":"m 128 0 l 128 956 l 257 956 l 257 0 l 128 0 m 272 1038 l 272 1162 l 382 1162 l 382 1038 l 272 1038 m 5 1038 l 5 1162 l 116 1162 l 116 1038 l 5 1038 "},"„":{"x_min":50.90625,"x_max":411.734375,"ha":463,"o":"m 411 34 q 399 -79 411 -30 q 358 -178 388 -129 l 276 -178 q 339 0 339 -85 l 280 0 l 280 132 l 411 132 l 411 34 m 187 34 q 174 -85 187 -37 q 134 -178 161 -133 l 50 -178 q 114 0 114 -85 l 54 0 l 54 132 l 187 132 l 187 34 "},"Â":{"x_min":2.71875,"x_max":923.28125,"ha":926,"o":"m 791 0 l 681 279 l 246 279 l 137 0 l 2 0 l 392 956 l 539 956 l 923 0 l 791 0 m 464 858 l 458 839 q 408 694 441 783 l 286 381 l 643 381 l 520 696 q 482 802 501 743 l 464 858 m 687 1051 l 687 1038 l 616 1038 l 468 1132 l 466 1132 l 309 1038 l 239 1038 l 239 1051 l 397 1214 l 536 1214 l 687 1051 "},"Í":{"x_min":96,"x_max":383.578125,"ha":386,"o":"m 128 0 l 128 956 l 257 956 l 257 0 l 128 0 m 96 1038 l 96 1051 l 243 1205 l 383 1205 l 383 1185 l 173 1038 l 96 1038 "},"´":{"x_min":48.875,"x_max":336.734375,"ha":463,"o":"m 48 815 l 48 828 l 196 1023 l 336 1023 l 336 1003 l 112 815 l 48 815 "},"ì":{"x_min":6.96875,"x_max":294.8125,"ha":386,"o":"m 131 0 l 131 734 l 253 734 l 253 0 l 131 0 m 231 815 l 6 1003 l 6 1023 l 147 1023 l 294 828 l 294 815 l 231 815 "},"±":{"x_min":44.0625,"x_max":718.609375,"ha":762,"o":"m 431 461 l 431 193 l 331 193 l 331 461 l 44 461 l 44 560 l 331 560 l 331 827 l 431 827 l 431 560 l 718 560 l 718 461 l 431 461 m 44 0 l 44 98 l 718 98 l 718 0 l 44 0 "},"Ú":{"x_min":107.15625,"x_max":895.84375,"ha":1003,"o":"m 495 -14 q 290 28 378 -14 q 155 152 203 71 q 107 347 107 234 l 107 956 l 236 956 l 236 357 q 303 159 236 226 q 495 91 369 91 q 695 161 623 91 q 766 366 766 231 l 766 956 l 895 956 l 895 359 q 846 159 895 243 q 707 30 797 74 q 495 -14 617 -14 m 383 1038 l 383 1051 l 530 1205 l 670 1205 l 670 1185 l 460 1038 l 383 1038 "},"|":{"x_min":124.171875,"x_max":236.765625,"ha":361,"o":"m 124 -294 l 124 1006 l 236 1006 l 236 -294 l 124 -294 "},"§":{"x_min":78.0625,"x_max":694.953125,"ha":773,"o":"m 399 1006 q 588 960 516 1006 q 679 829 661 915 l 570 816 q 399 917 551 917 q 270 891 314 917 q 226 816 226 864 q 246 759 226 783 q 305 718 267 736 q 430 679 342 700 q 583 627 530 656 q 665 559 636 599 q 694 464 694 519 q 654 346 694 397 q 546 279 614 295 q 656 203 622 247 q 690 97 690 159 q 612 -59 690 -2 q 391 -117 534 -117 q 175 -71 249 -117 q 78 67 101 -26 l 187 88 q 246 0 200 27 q 391 -28 293 -28 q 533 1 483 -28 q 582 87 582 31 q 559 151 582 125 q 495 197 537 178 q 351 242 454 217 q 161 325 219 272 q 103 454 103 378 q 145 565 103 515 q 258 635 187 615 q 155 702 193 657 q 118 806 118 748 q 189 953 118 900 q 399 1006 261 1006 m 587 449 q 540 533 587 498 q 373 596 493 568 q 256 556 299 592 q 212 463 212 520 q 232 405 212 430 q 290 362 252 380 q 415 321 327 344 q 541 357 496 323 q 587 449 587 391 "},"Ý":{"x_min":30.28125,"x_max":895.703125,"ha":926,"o":"m 526 396 l 526 0 l 397 0 l 397 396 l 30 956 l 172 956 l 463 500 l 753 956 l 895 956 l 526 396 m 364 1038 l 364 1051 l 511 1205 l 651 1205 l 651 1185 l 441 1038 l 364 1038 "},"b":{"x_min":89.59375,"x_max":714.640625,"ha":773,"o":"m 714 369 q 444 -14 714 -14 q 305 16 361 -14 q 215 113 250 46 l 214 113 q 211 49 214 92 q 207 0 208 6 l 89 0 q 93 151 93 36 l 93 1006 l 215 1006 l 215 719 q 213 615 215 675 l 215 615 q 305 716 249 685 q 444 747 361 747 q 649 653 583 747 q 714 369 714 559 m 586 365 q 545 586 586 519 q 413 652 504 652 q 262 582 310 652 q 215 358 215 511 q 261 145 215 213 q 411 76 308 76 q 545 144 504 76 q 586 365 586 212 "},"q":{"x_min":58.359375,"x_max":684.09375,"ha":773,"o":"m 328 -14 q 123 80 188 -14 q 58 363 58 174 q 328 747 58 747 q 466 717 412 747 q 557 619 520 687 l 558 619 q 561 689 558 639 q 566 743 564 739 l 684 743 q 679 543 679 703 l 679 -288 l 557 -288 l 557 9 l 559 120 l 558 120 q 468 16 521 47 q 328 -14 414 -14 m 557 375 q 510 587 557 518 q 361 656 463 656 q 227 587 268 656 q 186 367 186 518 q 227 146 186 213 q 359 80 268 80 q 510 154 463 80 q 557 375 557 228 "},"Ö":{"x_min":65.765625,"x_max":1013.5625,"ha":1080,"o":"m 1013 482 q 956 219 1013 332 q 791 46 898 106 q 538 -14 684 -14 q 285 45 391 -14 q 122 218 178 105 q 65 482 65 331 q 191 840 65 711 q 540 970 316 970 q 793 911 686 970 q 956 743 900 853 q 1013 482 1013 632 m 881 482 q 792 762 881 660 q 540 864 703 864 q 286 763 376 864 q 197 482 197 663 q 287 196 197 302 q 538 91 378 91 q 792 193 704 91 q 881 482 881 295 m 617 1038 l 617 1162 l 727 1162 l 727 1038 l 617 1038 m 350 1038 l 350 1162 l 461 1162 l 461 1038 l 350 1038 "},"z":{"x_min":56.328125,"x_max":625.765625,"ha":695,"o":"m 56 0 l 56 92 l 467 639 l 79 639 l 79 734 l 611 734 l 611 641 l 200 94 l 625 94 l 625 0 l 56 0 "},"ã":{"x_min":59.046875,"x_max":773,"ha":773,"o":"m 281 -14 q 114 44 170 -14 q 59 204 59 102 q 134 379 59 318 q 376 444 209 440 l 540 447 l 540 487 q 502 615 540 576 q 383 654 464 654 q 263 626 301 654 q 219 537 226 598 l 91 548 q 386 747 122 747 q 594 683 524 747 q 664 500 664 620 l 664 184 q 678 102 664 129 q 732 75 692 75 q 773 79 750 75 l 773 3 q 678 -7 726 -7 q 579 28 610 -7 q 545 139 549 64 l 540 139 q 432 20 494 55 q 281 -14 369 -14 m 308 77 q 428 108 375 77 q 510 191 480 138 q 540 301 540 244 l 540 361 l 407 358 q 276 341 321 357 q 208 291 232 324 q 184 202 184 257 q 216 110 184 142 q 308 77 249 77 m 501 815 q 443 827 472 815 q 389 855 415 840 q 338 883 362 870 q 293 895 314 895 q 237 874 255 895 q 213 815 219 853 l 151 815 q 175 919 158 884 q 218 976 191 955 q 289 997 246 997 q 347 984 319 997 q 402 956 376 971 q 452 928 429 941 q 496 916 475 916 q 575 997 564 916 l 638 997 q 592 855 626 896 q 501 815 558 815 "},"æ":{"x_min":44.765625,"x_max":1173.28125,"ha":1235,"o":"m 656 340 l 656 328 q 708 141 657 206 q 854 77 759 77 q 981 109 933 77 q 1046 190 1029 141 l 1153 159 q 854 -14 1087 -14 q 567 160 636 -14 q 442 25 514 65 q 272 -14 371 -14 q 102 44 159 -14 q 44 204 44 102 q 125 381 44 322 q 370 444 206 441 l 533 447 l 533 487 q 495 616 533 578 q 375 654 457 654 q 251 626 290 654 q 204 537 213 599 l 77 548 q 378 747 108 747 q 615 652 547 747 q 849 747 695 747 q 1173 356 1173 747 l 1173 340 l 656 340 m 533 361 l 400 358 q 262 338 310 356 q 192 286 215 320 q 170 202 170 252 q 204 110 170 143 q 301 77 238 77 q 422 107 370 77 q 503 190 474 137 q 533 301 533 242 l 533 361 m 1047 434 q 988 603 1036 550 q 847 656 939 656 q 711 598 761 656 q 657 434 661 540 l 1047 434 "},"®":{"x_min":21.015625,"x_max":1001.3125,"ha":1023,"o":"m 1001 479 q 935 234 1001 348 q 756 54 870 119 q 511 -11 642 -11 q 262 57 377 -11 q 84 238 147 125 q 21 479 21 351 q 86 724 21 610 q 266 904 152 838 q 511 970 380 970 q 756 903 642 970 q 936 724 871 837 q 1001 479 1001 611 m 938 479 q 881 692 938 594 q 725 847 825 790 q 511 905 626 905 q 298 848 397 905 q 142 691 199 790 q 85 479 85 592 q 142 265 85 364 q 298 109 200 166 q 511 52 396 52 q 725 109 625 52 q 881 265 825 166 q 938 479 938 364 m 647 196 l 512 423 l 403 423 l 403 196 l 317 196 l 317 760 l 525 760 q 672 717 621 760 q 724 599 724 674 q 688 488 724 529 q 595 433 653 446 l 745 196 l 647 196 m 637 597 q 605 669 637 644 q 518 693 573 693 l 403 693 l 403 489 l 526 489 q 609 517 580 489 q 637 597 637 546 "},"É":{"x_min":113.890625,"x_max":866.34375,"ha":926,"o":"m 113 0 l 113 956 l 838 956 l 838 850 l 243 850 l 243 543 l 797 543 l 797 438 l 243 438 l 243 105 l 866 105 l 866 0 l 113 0 m 374 1038 l 374 1051 l 521 1205 l 661 1205 l 661 1185 l 451 1038 l 374 1038 "},"~":{"x_min":62.390625,"x_max":748.609375,"ha":811,"o":"m 572 375 q 476 389 525 375 q 377 422 427 404 q 230 452 290 452 q 145 438 185 452 q 62 393 106 424 l 62 490 q 240 547 137 547 q 319 538 275 547 q 450 498 362 529 q 511 479 471 490 q 583 467 552 467 q 748 530 671 467 l 748 429 q 669 387 709 400 q 572 375 629 375 "},"³":{"x_min":18.328125,"x_max":435.84375,"ha":463,"o":"m 435 539 q 383 417 435 460 q 234 374 330 374 q 18 527 40 374 l 110 536 q 234 444 122 444 q 342 545 342 444 q 214 638 342 638 l 173 638 l 173 712 l 211 712 q 297 736 266 712 q 328 804 328 760 q 303 868 328 845 q 230 892 278 892 q 155 868 183 892 q 122 800 126 844 l 31 808 q 93 923 40 882 q 232 964 146 964 q 371 923 321 964 q 421 816 421 883 q 392 728 421 766 q 302 678 363 691 l 302 676 q 399 634 363 670 q 435 539 435 599 "},"¡":{"x_min":164.28125,"x_max":298.578125,"ha":463,"o":"m 180 465 l 280 465 l 297 -222 l 164 -222 l 180 465 m 298 734 l 298 598 l 167 598 l 167 734 l 298 734 "},"[":{"x_min":99.046875,"x_max":375.140625,"ha":386,"o":"m 99 -288 l 99 1006 l 375 1006 l 375 918 l 217 918 l 217 -200 l 375 -200 l 375 -288 l 99 -288 "},"L":{"x_min":114.015625,"x_max":726.84375,"ha":773,"o":"m 114 0 l 114 956 l 243 956 l 243 105 l 726 105 l 726 0 l 114 0 "}," ":{"x_min":0,"x_max":0,"ha":386},"%":{"x_min":49.515625,"x_max":1185.484375,"ha":1235,"o":"m 1185 294 q 1130 70 1185 148 q 968 -8 1075 -8 q 808 68 862 -8 q 754 294 754 144 q 806 524 754 448 q 971 600 858 600 q 1133 522 1082 600 q 1185 294 1185 444 m 357 0 l 252 0 l 877 956 l 984 956 l 357 0 m 267 964 q 427 888 375 964 q 479 661 479 812 q 425 435 479 514 q 264 356 371 356 q 103 434 157 356 q 49 661 49 513 q 101 888 49 812 q 267 964 153 964 m 1085 294 q 1059 470 1085 415 q 971 524 1032 524 q 882 471 909 524 q 854 294 854 417 q 881 122 854 178 q 969 66 908 66 q 1057 123 1029 66 q 1085 294 1085 179 m 379 661 q 354 835 379 780 q 267 890 328 890 q 176 836 203 890 q 149 661 149 783 q 176 488 149 544 q 265 432 203 432 q 352 489 324 432 q 379 661 379 546 "},"P":{"x_min":113.890625,"x_max":852.78125,"ha":926,"o":"m 852 668 q 764 452 852 532 q 524 372 675 372 l 243 372 l 243 0 l 113 0 l 113 956 l 515 956 q 764 880 676 956 q 852 668 852 805 m 722 667 q 500 852 722 852 l 243 852 l 243 475 l 505 475 q 722 667 722 475 "},"À":{"x_min":2.71875,"x_max":923.28125,"ha":926,"o":"m 791 0 l 681 279 l 246 279 l 137 0 l 2 0 l 392 956 l 539 956 l 923 0 l 791 0 m 464 858 l 458 839 q 408 694 441 783 l 286 381 l 643 381 l 520 696 q 482 802 501 743 l 464 858 m 508 1038 l 298 1185 l 298 1205 l 438 1205 l 585 1051 l 585 1038 l 508 1038 "},"_":{"x_min":-21.03125,"x_max":788.59375,"ha":773,"o":"m -21 -276 l -21 -188 l 788 -188 l 788 -276 l -21 -276 "},"ñ":{"x_min":95.296875,"x_max":685.734375,"ha":773,"o":"m 562 0 l 562 464 q 548 577 562 537 q 503 635 534 617 q 411 652 471 652 q 272 592 323 652 q 221 424 221 532 l 221 0 l 99 0 l 99 577 q 95 734 99 705 l 210 734 q 211 715 211 730 q 213 681 212 700 q 216 608 214 661 l 218 608 q 315 715 260 683 q 452 747 370 747 q 629 687 573 747 q 685 488 685 627 l 685 0 l 562 0 m 500 815 q 442 827 471 815 q 388 855 414 840 q 337 883 361 870 q 292 895 313 895 q 236 874 254 895 q 212 815 218 853 l 150 815 q 174 919 157 884 q 217 976 190 955 q 288 997 245 997 q 346 984 318 997 q 401 956 375 971 q 451 928 428 941 q 495 916 474 916 q 574 997 563 916 l 637 997 q 591 855 625 896 q 500 815 557 815 "},"+":{"x_min":67.765625,"x_max":742.59375,"ha":811,"o":"m 455 411 l 455 121 l 355 121 l 355 411 l 67 411 l 67 511 l 355 511 l 355 801 l 455 801 l 455 511 l 742 511 l 742 411 l 455 411 "},"‚":{"x_min":86.265625,"x_max":222.578125,"ha":309,"o":"m 222 34 q 209 -85 222 -37 q 169 -178 196 -133 l 86 -178 q 150 0 150 -85 l 90 0 l 90 132 l 222 132 l 222 34 "},"½":{"x_min":37.984375,"x_max":1121.109375,"ha":1158,"o":"m 334 0 l 233 0 l 831 955 l 929 955 l 334 0 m 37 381 l 37 454 l 181 454 l 181 874 l 44 781 l 44 862 l 186 955 l 269 955 l 269 454 l 415 454 l 415 381 l 37 381 m 714 1 l 712 71 q 777 162 733 118 q 893 257 821 206 q 989 341 959 303 q 1019 418 1019 379 q 995 485 1019 460 q 921 511 971 511 q 845 486 874 511 q 809 415 815 461 l 719 421 q 783 538 728 493 q 925 583 837 583 q 1061 541 1011 583 q 1112 425 1112 499 q 984 231 1112 325 q 868 139 902 170 q 820 78 834 108 l 1121 78 l 1121 1 l 714 1 "},"Æ":{"x_min":16.28125,"x_max":1329.3125,"ha":1389,"o":"m 657 0 l 657 279 l 285 279 l 151 0 l 16 0 l 481 956 l 1301 956 l 1301 850 l 786 850 l 786 543 l 1260 543 l 1260 438 l 786 438 l 786 105 l 1329 105 l 1329 0 l 657 0 m 657 856 l 554 856 l 535 813 l 333 381 l 657 381 l 657 856 "},"Ë":{"x_min":113.890625,"x_max":866.34375,"ha":926,"o":"m 113 0 l 113 956 l 838 956 l 838 850 l 243 850 l 243 543 l 797 543 l 797 438 l 243 438 l 243 105 l 866 105 l 866 0 l 113 0 m 554 1038 l 554 1162 l 664 1162 l 664 1038 l 554 1038 m 287 1038 l 287 1162 l 398 1162 l 398 1038 l 287 1038 "},"'":{"x_min":70.484375,"x_max":195.28125,"ha":265,"o":"m 180 656 l 84 656 l 70 956 l 195 956 l 180 656 "},"ª":{"x_min":17.625,"x_max":518.765625,"ha":514,"o":"m 176 441 q 60 480 103 441 q 17 589 17 519 q 70 710 17 668 q 229 754 124 752 l 349 757 l 349 797 q 326 877 349 852 q 247 902 302 902 q 174 882 202 902 q 141 811 147 862 l 40 818 q 104 930 50 889 q 246 971 158 971 q 395 928 344 971 q 446 801 446 886 l 446 592 q 456 535 446 552 q 489 518 465 518 q 518 524 502 518 l 518 453 q 462 445 485 445 q 385 470 412 445 q 355 540 358 496 l 352 540 q 176 441 303 441 m 202 516 q 306 556 263 516 q 349 650 349 596 l 349 694 l 256 691 q 147 665 176 687 q 119 598 119 642 q 202 516 119 516 "},"ð":{"x_min":58.359375,"x_max":721.421875,"ha":773,"o":"m 384 -14 q 142 73 226 -14 q 58 326 58 161 q 142 577 58 491 q 388 664 226 664 q 545 623 481 664 q 386 848 471 770 l 182 758 l 182 835 l 330 898 q 166 1006 256 957 l 308 1006 q 423 936 362 981 l 631 1026 l 630 950 l 487 887 q 662 644 603 782 q 721 349 721 506 l 721 345 q 636 77 721 168 q 384 -14 552 -14 m 593 326 q 545 515 593 456 q 391 573 497 573 q 235 514 285 573 q 186 326 186 455 q 235 136 186 197 q 382 76 284 76 q 542 135 492 76 q 593 326 593 195 "},"T":{"x_min":31.1875,"x_max":816.140625,"ha":848,"o":"m 488 850 l 488 0 l 359 0 l 359 850 l 31 850 l 31 956 l 816 956 l 816 850 l 488 850 "},"Þ":{"x_min":113.890625,"x_max":852.78125,"ha":926,"o":"m 852 498 q 813 344 852 412 q 699 239 774 277 q 524 202 625 202 l 243 202 l 243 0 l 113 0 l 113 956 l 243 956 l 243 785 l 515 785 q 765 709 677 785 q 852 498 852 634 m 722 496 q 666 637 722 587 q 500 688 611 688 l 243 688 l 243 297 l 505 297 q 665 350 609 297 q 722 496 722 402 "},"j":{"x_min":-33.78125,"x_max":215.125,"ha":309,"o":"m 93 889 l 93 1006 l 215 1006 l 215 889 l 93 889 m 215 -90 q 174 -241 215 -194 q 52 -288 133 -288 q -33 -281 0 -288 l -33 -187 l 8 -191 q 74 -167 55 -191 q 93 -72 93 -142 l 93 734 l 215 734 l 215 -90 "},"1":{"x_min":106.03125,"x_max":704.90625,"ha":773,"o":"m 106 0 l 106 103 l 349 103 l 349 839 l 133 685 l 133 800 l 359 956 l 472 956 l 472 103 l 704 103 l 704 0 l 106 0 "},"›":{"x_min":60.421875,"x_max":403.265625,"ha":463,"o":"m 174 96 l 60 96 l 60 115 l 289 364 l 61 616 l 61 638 l 174 638 l 403 386 l 403 343 l 174 96 "},"ı":{"x_min":131.609375,"x_max":253.6875,"ha":386,"o":"m 131 0 l 131 734 l 253 734 l 253 0 l 131 0 "},"ä":{"x_min":59.046875,"x_max":773,"ha":773,"o":"m 281 -14 q 114 44 170 -14 q 59 204 59 102 q 134 379 59 318 q 376 444 209 440 l 540 447 l 540 487 q 502 615 540 576 q 383 654 464 654 q 263 626 301 654 q 219 537 226 598 l 91 548 q 386 747 122 747 q 594 683 524 747 q 664 500 664 620 l 664 184 q 678 102 664 129 q 732 75 692 75 q 773 79 750 75 l 773 3 q 678 -7 726 -7 q 579 28 610 -7 q 545 139 549 64 l 540 139 q 432 20 494 55 q 281 -14 369 -14 m 308 77 q 428 108 375 77 q 510 191 480 138 q 540 301 540 244 l 540 361 l 407 358 q 276 341 321 357 q 208 291 232 324 q 184 202 184 257 q 216 110 184 142 q 308 77 249 77 m 458 827 l 458 951 l 568 951 l 568 827 l 458 827 m 190 827 l 190 951 l 302 951 l 302 827 l 190 827 "},"<":{"x_min":68.484375,"x_max":743.1875,"ha":811,"o":"m 68 387 l 68 526 l 743 810 l 743 705 l 161 457 l 743 208 l 743 105 l 68 387 "},"£":{"x_min":39.375,"x_max":749.25,"ha":773,"o":"m 749 210 q 677 54 737 109 q 520 0 618 0 l 46 0 l 46 104 q 136 189 107 135 q 165 325 165 244 l 165 423 l 39 423 l 39 511 l 165 511 l 165 701 q 235 901 165 833 q 438 970 305 970 q 606 928 538 970 q 696 814 673 887 l 578 775 q 527 844 564 818 q 441 869 489 869 q 325 830 363 869 q 287 706 287 791 l 287 511 l 564 511 l 564 423 l 287 423 l 287 338 q 256 194 287 257 q 172 103 225 131 l 500 103 q 638 223 619 103 l 749 210 "},"¹":{"x_min":54.46875,"x_max":432.234375,"ha":463,"o":"m 54 382 l 54 454 l 197 454 l 197 875 l 60 782 l 60 863 l 202 956 l 286 956 l 286 454 l 432 454 l 432 382 l 54 382 "},"t":{"x_min":21.0625,"x_max":375.765625,"ha":386,"o":"m 375 5 q 252 -11 315 -11 q 105 155 105 -11 l 105 645 l 21 645 l 21 734 l 110 734 l 146 898 l 227 898 l 227 734 l 363 734 l 363 645 l 227 645 l 227 181 q 245 107 227 128 q 305 85 262 85 q 375 95 329 85 l 375 5 "},"¬":{"x_min":67.8125,"x_max":742.515625,"ha":811,"o":"m 644 122 l 644 411 l 67 411 l 67 511 l 742 511 l 742 122 l 644 122 "},"ù":{"x_min":94.265625,"x_max":684.6875,"ha":773,"o":"m 217 734 l 217 268 q 231 155 217 195 q 276 97 245 115 q 368 80 308 80 q 507 140 456 80 q 558 308 558 201 l 558 734 l 680 734 l 680 156 q 684 0 680 28 l 569 0 q 568 18 568 3 q 566 52 567 33 q 563 125 565 71 l 561 125 q 464 17 519 49 q 327 -14 409 -14 q 150 46 206 -14 q 94 244 94 106 l 94 734 l 217 734 m 456 815 l 231 1003 l 231 1023 l 372 1023 l 519 828 l 519 815 l 456 815 "},"W":{"x_min":6.109375,"x_max":1306.25,"ha":1311,"o":"m 1024 0 l 870 0 l 704 607 q 657 811 688 664 q 627 679 639 732 q 442 0 615 626 l 287 0 l 6 956 l 141 956 l 312 348 q 368 113 343 234 q 406 276 385 188 q 594 956 427 365 l 718 956 l 885 360 q 944 113 923 215 l 950 137 q 980 264 969 215 q 1171 956 992 314 l 1306 956 l 1024 0 "},"ï":{"x_min":5.546875,"x_max":383.6875,"ha":386,"o":"m 131 0 l 131 734 l 253 734 l 253 0 l 131 0 m 273 827 l 273 951 l 383 951 l 383 827 l 273 827 m 5 827 l 5 951 l 117 951 l 117 827 l 5 827 "},">":{"x_min":68.484375,"x_max":743.1875,"ha":811,"o":"m 68 105 l 68 208 l 650 457 l 68 705 l 68 810 l 743 526 l 743 387 l 68 105 "},"v":{"x_min":4.75,"x_max":690.25,"ha":695,"o":"m 415 0 l 271 0 l 4 734 l 134 734 l 296 256 q 343 95 305 229 l 367 175 l 393 255 l 560 734 l 690 734 l 415 0 "},"û":{"x_min":94.265625,"x_max":684.6875,"ha":773,"o":"m 217 734 l 217 268 q 231 155 217 195 q 276 97 245 115 q 368 80 308 80 q 507 140 456 80 q 558 308 558 201 l 558 734 l 680 734 l 680 156 q 684 0 680 28 l 569 0 q 568 18 568 3 q 566 52 567 33 q 563 125 565 71 l 561 125 q 464 17 519 49 q 327 -14 409 -14 q 150 46 206 -14 q 94 244 94 106 l 94 734 l 217 734 m 611 828 l 611 815 l 540 815 l 391 929 l 390 929 l 232 815 l 162 815 l 162 828 l 320 1012 l 459 1012 l 611 828 "},"Ò":{"x_min":65.765625,"x_max":1013.5625,"ha":1080,"o":"m 1013 482 q 956 219 1013 332 q 791 46 898 106 q 538 -14 684 -14 q 285 45 391 -14 q 122 218 178 105 q 65 482 65 331 q 191 840 65 711 q 540 970 316 970 q 793 911 686 970 q 956 743 900 853 q 1013 482 1013 632 m 881 482 q 792 762 881 660 q 540 864 703 864 q 286 763 376 864 q 197 482 197 663 q 287 196 197 302 q 538 91 378 91 q 792 193 704 91 q 881 482 881 295 m 579 1038 l 369 1185 l 369 1205 l 509 1205 l 656 1051 l 656 1038 l 579 1038 "},"&":{"x_min":48.8125,"x_max":904.3125,"ha":926,"o":"m 808 -8 q 606 77 688 -8 q 490 9 555 33 q 354 -14 425 -14 q 128 56 208 -14 q 48 251 48 126 q 281 542 48 439 q 242 642 258 584 q 226 747 226 699 q 288 905 226 849 q 464 961 350 961 q 629 909 566 961 q 692 768 692 857 q 630 625 692 688 q 414 502 568 563 q 613 222 490 363 q 729 501 690 335 l 827 471 q 684 153 785 302 q 825 87 749 87 q 904 98 873 87 l 904 6 q 808 -8 866 -8 m 589 768 q 555 848 589 817 q 463 878 521 878 q 364 843 397 878 q 330 747 330 809 q 374 581 330 669 q 504 644 462 617 q 567 701 546 670 q 589 768 589 731 m 538 146 q 322 456 404 305 q 162 252 162 389 q 215 122 162 170 q 358 74 267 74 q 454 93 406 74 q 538 146 503 112 "},"Ð":{"x_min":9.5,"x_max":936.546875,"ha":1003,"o":"m 9 543 l 113 543 l 113 956 l 429 956 q 804 834 672 956 q 936 487 936 712 q 878 228 936 339 q 715 59 821 118 q 471 0 609 0 l 113 0 l 113 438 l 9 438 l 9 543 m 806 487 q 709 758 806 665 q 427 852 611 852 l 243 852 l 243 543 l 518 543 l 518 438 l 243 438 l 243 103 l 456 103 q 641 149 561 103 q 763 282 720 196 q 806 487 806 369 "},"I":{"x_min":128.21875,"x_max":257.75,"ha":386,"o":"m 128 0 l 128 956 l 257 956 l 257 0 l 128 0 "},"G":{"x_min":69.828125,"x_max":976.265625,"ha":1080,"o":"m 69 482 q 194 842 69 714 q 545 970 319 970 q 802 916 703 970 q 955 744 901 862 l 831 708 q 719 826 791 789 q 541 864 648 864 q 288 764 376 864 q 201 482 201 663 q 294 195 201 300 q 551 91 387 91 q 725 119 644 91 q 856 197 806 148 l 856 369 l 571 369 l 571 478 l 976 478 l 976 148 q 790 28 900 70 q 551 -14 680 -14 q 292 45 401 -14 q 127 217 184 105 q 69 482 69 330 "},"`":{"x_min":71.96875,"x_max":359.8125,"ha":463,"o":"m 296 815 l 71 1003 l 71 1023 l 212 1023 l 359 828 l 359 815 l 296 815 "},"·":{"x_min":164.859375,"x_max":297.109375,"ha":463,"o":"m 164 302 l 164 452 l 297 452 l 297 302 l 164 302 "},"r":{"x_min":92.328125,"x_max":439.921875,"ha":463,"o":"m 96 0 l 96 563 q 92 734 96 640 l 207 734 q 213 583 213 608 l 215 583 q 283 712 244 677 q 390 747 321 747 q 439 740 414 747 l 439 628 q 374 635 415 635 q 258 569 298 635 q 218 382 218 504 l 218 0 l 96 0 "},"¿":{"x_min":88.796875,"x_max":752.421875,"ha":848,"o":"m 88 34 q 103 125 88 85 q 146 199 118 165 q 237 279 174 233 l 292 319 q 363 393 340 354 q 388 479 387 432 l 507 479 q 492 396 505 432 q 458 334 479 361 q 410 285 437 307 q 357 245 384 264 q 304 206 330 225 q 257 163 277 187 q 224 109 237 139 q 212 39 212 79 q 264 -82 212 -37 q 412 -127 317 -127 q 562 -80 507 -127 q 627 50 618 -32 l 752 42 q 646 -164 734 -92 q 413 -236 558 -236 q 175 -164 262 -236 q 88 34 88 -92 m 512 734 l 512 598 l 380 598 l 380 734 l 512 734 "},"ý":{"x_min":3.390625,"x_max":692.28125,"ha":695,"o":"m 129 -288 q 45 -280 79 -288 l 45 -188 q 102 -193 71 -193 q 283 -25 216 -193 l 294 3 l 3 734 l 133 734 l 288 328 q 296 305 291 318 q 327 217 301 292 q 354 132 352 141 l 402 266 l 563 734 l 692 734 l 409 0 q 325 -174 364 -117 q 237 -259 285 -231 q 129 -288 190 -288 m 240 815 l 240 828 l 388 1023 l 528 1023 l 528 1003 l 304 815 l 240 815 "},"x":{"x_min":15.609375,"x_max":680.0625,"ha":695,"o":"m 543 0 l 346 301 l 147 0 l 15 0 l 276 377 l 27 734 l 162 734 l 346 448 l 528 734 l 664 734 l 415 378 l 680 0 l 543 0 "},"è":{"x_min":59.046875,"x_max":711.234375,"ha":773,"o":"m 187 340 q 239 145 187 214 q 392 77 291 77 q 519 109 471 77 q 584 190 567 141 l 691 159 q 392 -14 625 -14 q 144 82 229 -14 q 59 371 59 179 q 144 650 59 553 q 387 747 229 747 q 711 356 711 747 l 711 340 l 187 340 m 585 434 q 526 603 574 550 q 385 656 477 656 q 244 597 296 656 q 188 434 192 537 l 585 434 m 447 815 l 222 1003 l 222 1023 l 363 1023 l 510 828 l 510 815 l 447 815 "},"º":{"x_min":18.296875,"x_max":490.0625,"ha":507,"o":"m 490 706 q 430 509 490 578 q 252 441 370 441 q 78 509 138 441 q 18 706 18 577 q 78 902 18 834 q 254 971 138 971 q 490 706 490 971 m 389 706 q 358 855 389 810 q 256 899 327 899 q 152 853 183 899 q 121 706 121 808 q 152 560 121 607 q 251 512 183 512 q 357 559 326 512 q 389 706 389 605 "},"Ø":{"x_min":48.140625,"x_max":1033.234375,"ha":1080,"o":"m 1013 482 q 956 219 1013 332 q 791 46 898 106 q 538 -14 684 -14 q 258 61 372 -14 l 176 -36 l 48 -36 l 183 127 q 65 482 65 257 q 191 840 65 711 q 540 970 316 970 q 821 895 707 970 l 903 994 l 1033 994 l 896 830 q 1013 482 1013 701 m 881 482 q 814 731 881 634 l 334 152 q 538 91 416 91 q 792 193 704 91 q 881 482 881 295 m 197 482 q 265 225 197 326 l 745 804 q 540 864 661 864 q 286 763 376 864 q 197 482 197 663 "},"÷":{"x_min":44.0625,"x_max":718.609375,"ha":762,"o":"m 324 648 l 324 773 l 437 773 l 437 648 l 324 648 m 44 411 l 44 511 l 718 511 l 718 411 l 44 411 m 324 150 l 324 275 l 437 275 l 437 150 l 324 150 "},"h":{"x_min":96.375,"x_max":682.734375,"ha":773,"o":"m 215 608 q 309 713 254 679 q 449 747 365 747 q 626 687 569 747 q 682 488 682 628 l 682 0 l 559 0 l 559 464 q 545 579 559 542 q 498 635 531 617 q 408 652 466 652 q 270 593 322 652 q 218 432 218 533 l 218 0 l 96 0 l 96 1006 l 218 1006 l 218 744 q 216 658 218 702 q 213 608 213 614 l 215 608 "},".":{"x_min":126.859375,"x_max":259.109375,"ha":386,"o":"m 126 0 l 126 149 l 259 149 l 259 0 l 126 0 "},"f":{"x_min":19.6875,"x_max":387.953125,"ha":386,"o":"m 244 645 l 244 0 l 122 0 l 122 645 l 19 645 l 19 734 l 122 734 l 122 816 q 166 960 122 916 q 301 1005 210 1005 q 387 996 352 1005 l 387 903 q 333 909 357 909 q 265 885 286 909 q 244 799 244 861 l 244 734 l 387 734 l 387 645 l 244 645 "},"“":{"x_min":50.921875,"x_max":412.09375,"ha":463,"o":"m 276 646 l 276 745 q 288 860 276 809 q 329 956 300 910 l 412 956 q 348 778 348 863 l 408 778 l 408 646 l 276 646 m 50 646 l 50 745 q 63 860 50 810 q 105 956 76 910 l 187 956 q 122 778 122 862 l 183 778 l 183 646 l 50 646 "},"6":{"x_min":70.578125,"x_max":711.921875,"ha":773,"o":"m 711 312 q 629 73 711 161 q 403 -14 547 -14 q 156 106 241 -14 q 70 455 70 226 q 159 836 70 703 q 412 970 248 970 q 685 775 629 970 l 568 754 q 411 870 532 870 q 249 773 306 870 q 191 491 191 676 q 285 585 225 553 q 424 618 346 618 q 634 535 556 618 q 711 312 711 452 m 587 307 q 536 467 587 411 q 394 523 485 523 q 256 473 309 523 q 204 336 204 423 q 258 154 204 225 q 399 84 313 84 q 537 143 487 84 q 587 307 587 203 "},"A":{"x_min":2.71875,"x_max":923.28125,"ha":926,"o":"m 791 0 l 681 279 l 246 279 l 137 0 l 2 0 l 392 956 l 539 956 l 923 0 l 791 0 m 464 858 l 458 839 q 408 694 441 783 l 286 381 l 643 381 l 520 696 q 482 802 501 743 l 464 858 "},"‘":{"x_min":86.25,"x_max":222.5625,"ha":309,"o":"m 86 646 l 86 745 q 98 860 86 810 q 140 956 111 910 l 222 956 q 158 778 158 862 l 218 778 l 218 646 l 86 646 "},"O":{"x_min":65.765625,"x_max":1013.5625,"ha":1080,"o":"m 1013 482 q 956 219 1013 332 q 791 46 898 106 q 538 -14 684 -14 q 285 45 391 -14 q 122 218 178 105 q 65 482 65 331 q 191 840 65 711 q 540 970 316 970 q 793 911 686 970 q 956 743 900 853 q 1013 482 1013 632 m 881 482 q 792 762 881 660 q 540 864 703 864 q 286 763 376 864 q 197 482 197 663 q 287 196 197 302 q 538 91 378 91 q 792 193 704 91 q 881 482 881 295 "},"n":{"x_min":92.296875,"x_max":682.734375,"ha":773,"o":"m 559 0 l 559 464 q 545 577 559 537 q 500 635 531 617 q 408 652 468 652 q 269 592 320 652 q 218 424 218 532 l 218 0 l 96 0 l 96 577 q 92 734 96 705 l 207 734 q 208 715 208 730 q 210 681 209 700 q 213 608 211 661 l 215 608 q 312 715 257 683 q 449 747 367 747 q 626 687 570 747 q 682 488 682 627 l 682 0 l 559 0 "},"3":{"x_min":52.9375,"x_max":711.921875,"ha":773,"o":"m 711 263 q 627 58 711 131 q 387 -14 543 -14 q 155 51 242 -14 q 52 245 69 116 l 179 256 q 387 87 203 87 q 532 132 479 87 q 585 267 585 178 q 525 389 585 345 q 351 433 464 433 l 282 433 l 282 539 l 348 539 q 504 582 449 539 q 559 703 559 626 q 514 825 559 780 q 380 869 469 869 q 250 828 299 869 q 191 711 200 786 l 69 721 q 166 904 82 838 q 382 970 250 970 q 605 903 525 970 q 685 716 685 836 q 634 567 685 625 q 485 490 582 510 l 485 487 q 652 415 592 475 q 711 263 711 355 "},"9":{"x_min":65.15625,"x_max":707.171875,"ha":773,"o":"m 707 497 q 617 118 707 250 q 361 -14 527 -14 q 181 33 249 -14 q 84 185 114 80 l 201 203 q 363 84 238 84 q 526 182 468 84 q 586 460 583 279 q 493 362 559 399 q 348 326 427 326 q 142 414 219 326 q 65 648 65 502 q 149 884 65 798 q 383 970 233 970 q 625 851 542 970 q 707 497 707 733 m 574 615 q 521 800 574 730 q 379 870 468 870 q 240 810 291 870 q 189 648 189 750 q 240 483 189 543 q 378 422 291 422 q 476 446 430 422 q 548 514 521 470 q 574 615 574 558 "},"l":{"x_min":93.71875,"x_max":215.796875,"ha":309,"o":"m 93 0 l 93 1006 l 215 1006 l 215 0 l 93 0 "},"¤":{"x_min":76.71875,"x_max":695.9375,"ha":773,"o":"m 93 464 q 145 635 93 557 l 78 703 l 148 772 l 215 704 q 388 760 293 760 q 558 705 480 760 l 624 771 l 694 700 l 629 635 q 683 464 683 555 q 628 293 683 370 l 695 225 l 626 154 l 558 222 q 388 170 480 170 q 217 224 291 170 l 145 153 l 76 224 l 145 293 q 93 464 93 370 m 197 465 q 253 331 197 386 q 388 275 310 275 q 521 330 465 275 q 577 465 577 385 q 521 600 577 545 q 388 656 464 656 q 254 600 311 656 q 197 465 197 545 "},"4":{"x_min":31.890625,"x_max":732.1875,"ha":773,"o":"m 597 216 l 597 0 l 482 0 l 482 216 l 31 216 l 31 311 l 469 956 l 597 956 l 597 313 l 732 313 l 732 216 l 597 216 m 482 818 q 463 782 481 814 q 437 737 445 750 l 192 376 l 155 326 l 144 313 l 482 313 l 482 818 "},"p":{"x_min":89.59375,"x_max":714.640625,"ha":773,"o":"m 714 370 q 444 -14 714 -14 q 216 113 274 -14 l 213 113 q 215 -1 215 108 l 215 -288 l 93 -288 l 93 584 q 89 734 93 697 l 207 734 q 209 714 208 731 q 212 663 210 698 q 214 615 214 628 l 217 615 q 303 715 249 683 q 444 747 356 747 q 647 656 580 747 q 714 370 714 565 m 586 367 q 545 586 586 521 q 413 652 503 652 q 299 622 340 652 q 237 526 258 591 q 215 358 215 461 q 261 144 215 213 q 411 76 308 76 q 544 143 502 76 q 586 367 586 209 "},"à":{"x_min":59.046875,"x_max":773,"ha":773,"o":"m 281 -14 q 114 44 170 -14 q 59 204 59 102 q 134 379 59 318 q 376 444 209 440 l 540 447 l 540 487 q 502 615 540 576 q 383 654 464 654 q 263 626 301 654 q 219 537 226 598 l 91 548 q 386 747 122 747 q 594 683 524 747 q 664 500 664 620 l 664 184 q 678 102 664 129 q 732 75 692 75 q 773 79 750 75 l 773 3 q 678 -7 726 -7 q 579 28 610 -7 q 545 139 549 64 l 540 139 q 432 20 494 55 q 281 -14 369 -14 m 308 77 q 428 108 375 77 q 510 191 480 138 q 540 301 540 244 l 540 361 l 407 358 q 276 341 321 357 q 208 291 232 324 q 184 202 184 257 q 216 110 184 142 q 308 77 249 77 m 424 815 l 199 1003 l 199 1023 l 340 1023 l 487 828 l 487 815 l 424 815 "},"Ü":{"x_min":107.15625,"x_max":895.84375,"ha":1003,"o":"m 495 -14 q 290 28 378 -14 q 155 152 203 71 q 107 347 107 234 l 107 956 l 236 956 l 236 357 q 303 159 236 226 q 495 91 369 91 q 695 161 623 91 q 766 366 766 231 l 766 956 l 895 956 l 895 359 q 846 159 895 243 q 707 30 797 74 q 495 -14 617 -14 m 579 1038 l 579 1162 l 689 1162 l 689 1038 l 579 1038 m 312 1038 l 312 1162 l 423 1162 l 423 1038 l 312 1038 "},"ó":{"x_min":58.359375,"x_max":714.640625,"ha":773,"o":"m 714 367 q 629 80 714 174 q 383 -14 544 -14 q 140 84 222 -14 q 58 367 58 182 q 387 747 58 747 q 635 654 555 747 q 714 367 714 561 m 586 367 q 541 587 586 519 q 389 656 496 656 q 234 586 282 656 q 186 367 186 516 q 233 149 186 222 q 382 76 280 76 q 539 146 492 76 q 586 367 586 217 m 291 815 l 291 828 l 439 1023 l 579 1023 l 579 1003 l 355 815 l 291 815 "},"⁴":{"x_min":10,"x_max":449.125,"ha":463,"o":"m 373 502 l 373 382 l 285 382 l 285 502 l 10 502 l 10 577 l 271 956 l 373 956 l 373 579 l 449 579 l 449 502 l 373 502 m 286 865 q 230 774 272 838 l 96 579 l 285 579 l 285 823 l 286 865 "}}}
